<svg width="16" height="16" viewBox="0 0 16 16" fill="none" xmlns="http://www.w3.org/2000/svg">
<path d="M2.99998 2C3.29998 2.1 3.59998 2.1 3.89998 2.2C4.89998 2.4 5.89998 2.7 6.79998 3.3C7.89998 4.1 8.39997 5.1 8.39997 6.4C8.39997 7.2 8.09998 7.9 7.69998 8.6C7.09998 9.7 6.19998 10.6 5.19998 11.4C3.69998 12.6 2.09998 13.5 0.399976 14.4C0.299976 14.5 0.199976 14.5 0.0999756 14.6C0.199976 14.6 0.199976 14.6 0.199976 14.6C1.99998 14.1 3.59998 13.5 5.29998 12.8C7.09998 12 8.79997 11.1 10.4 9.8C11.2 9.2 11.9 8.4 12.4 7.5C12.8 6.8 13 6.1 12.8 5.3C12.7 4.5 12.2 3.9 11.5 3.4C10.8 2.9 9.99998 2.7 9.19998 2.5C7.19998 2.1 5.09998 2 2.99998 2ZM10.2 10.6C11.4 9.9 12.6 9.2 13.7 8.4C14.4 7.9 15 7.3 15.5 6.6C15.7 6.3 15.9 5.9 15.9 5.5C16 4.9 15.7 4.5 15.3 4.1C14.8 3.7 14.3 3.4 13.7 3.2C13.6 3.2 13.5 3.1 13.3 3.1C13.3 3.2 13.4 3.2 13.5 3.2C13.9 3.4 14.3 3.6 14.6 4C15.1 4.6 15.3 5.2 15.1 5.9C14.9 6.5 14.5 7 14.1 7.5C14 7.6 13.9 7.7 13.8 7.9C13.8 7.8 13.8 7.8 13.9 7.7C14.1 7.4 14.3 7.1 14.4 6.8C14.9 5.6 14.6 4.6 13.6 3.8C13 3.3 12.3 3 11.5 2.8C11.1 2.7 10.7 2.6 10.3 2.5C10.8 2.7 11.3 2.9 11.8 3.1C12.3 3.3 12.8 3.7 13.1 4.1C13.8 4.9 13.9 5.9 13.5 6.9C13.2 7.9 12.6 8.6 11.8 9.3C11.3 9.8 10.7 10.2 10.2 10.6Z" fill="#692746"/>
<path d="M2.99995 2C5.09995 2 7.19995 2.1 9.29995 2.6C10.1 2.8 10.9 3.1 11.6 3.5C12.3 4 12.8 4.5 12.9 5.4C13 6.2 12.8 6.9 12.5 7.6C12 8.5 11.3 9.2 10.5 9.9C8.99995 11.1 7.19995 12.1 5.39995 12.9C3.69995 13.6 2.09995 14.2 0.299951 14.7H0.199951C0.299951 14.6 0.399951 14.6 0.499951 14.5C2.19995 13.6 3.79995 12.7 5.29995 11.5C6.29995 10.7 7.19995 9.8 7.79995 8.7C8.09995 8 8.29995 7.2 8.39995 6.4C8.49995 5.1 7.89995 4 6.79995 3.3C5.89995 2.7 4.99995 2.4 3.89995 2.2C3.59995 2.1 3.29995 2.1 2.99995 2Z" fill="#692746"/>
<path d="M10.2 10.6C10.7 10.2 11.3 9.8 11.9 9.3C12.6 8.6 13.3 7.9 13.6 6.9C13.9 5.9 13.9 4.9 13.2 4.1C12.8 3.7 12.4 3.3 11.9 3.1C11.4 2.9 10.9 2.7 10.4 2.5C10.8 2.6 11.2 2.7 11.6 2.8C12.3 3 13.1 3.3 13.7 3.8C14.7 4.6 15 5.6 14.5 6.8C14.4 7.1 14.2 7.4 14 7.7C14 7.8 13.9 7.8 13.9 7.9C14 7.8 14.1 7.7 14.2 7.5C14.6 7 15 6.5 15.2 5.9C15.4 5.2 15.3 4.5 14.7 4C14.4 3.7 14 3.4 13.6 3.2C13.5 3.2 13.5 3.1 13.4 3.1C13.5 3.1 13.6 3.2 13.8 3.2C14.4 3.4 14.9 3.7 15.4 4.1C15.8 4.5 16 4.9 16 5.5C16 5.9 15.8 6.2 15.6 6.6C15.1 7.3 14.5 7.9 13.8 8.4C12.6 9.2 11.4 10 10.2 10.6Z" fill="#692746"/>
</svg>
