<svg width="52" height="52" viewBox="0 0 52 52" fill="none" xmlns="http://www.w3.org/2000/svg">
<mask id="mask0_6277_60" style="mask-type:alpha" maskUnits="userSpaceOnUse" x="0" y="0" width="52" height="52">
<rect x="1" y="1" width="50" height="50" rx="7" stroke="black" stroke-width="2"/>
<path d="M40 39.9826L34.435 34.4176H19.7C19.1225 34.4176 18.6282 34.2119 18.2171 33.8005C17.8057 33.3894 17.6 32.8951 17.6 32.3176V29.5176H33C33.5775 29.5176 34.0719 29.3119 34.4833 28.9005C34.8944 28.4894 35.1 27.9951 35.1 27.4176V17.6176H37.9C38.4775 17.6176 38.9719 17.8231 39.3833 18.2343C39.7944 18.6456 40 19.1401 40 19.7176V39.9826ZM14.1 27.9426L16.725 25.3176H30.9V14.1176H14.1V27.9426ZM12 33.0176V14.1176C12 13.5401 12.2057 13.0456 12.617 12.6343C13.0282 12.2231 13.5225 12.0176 14.1 12.0176H30.9C31.4775 12.0176 31.9719 12.2231 32.3833 12.6343C32.7944 13.0456 33 13.5401 33 14.1176V25.3176C33 25.8951 32.7944 26.3894 32.3833 26.8005C31.9719 27.2119 31.4775 27.4176 30.9 27.4176H17.6L12 33.0176Z" fill="#5F6368"/>
</mask>
<g mask="url(#mask0_6277_60)">
<path d="M-22 -22.4639H78V71.1361H-22V-22.4639Z" fill="url(#paint0_radial_6277_60)"/>
</g>
<defs>
<radialGradient id="paint0_radial_6277_60" cx="0" cy="0" r="1" gradientUnits="userSpaceOnUse" gradientTransform="translate(51.5 1.87214) rotate(134.624) scale(69.0434 69.2544)">
<stop stop-color="#CF4D8A"/>
<stop offset="1" stop-color="#692746"/>
</radialGradient>
</defs>
</svg>
