<svg width="52" height="52" viewBox="0 0 52 52" fill="none" xmlns="http://www.w3.org/2000/svg">
<mask id="mask0_4454_420" style="mask-type:alpha" maskUnits="userSpaceOnUse" x="0" y="0" width="52" height="52">
<rect x="1" y="1" width="49.96" height="50" rx="7" stroke="black" stroke-width="2"/>
<path d="M22.7624 33.2C25.6408 33.2 28.1 32.1849 30.14 30.1548C32.18 28.1249 33.2 25.66 33.2 22.76C33.2 19.8821 32.18 17.436 30.14 15.4216C28.1 13.4072 25.6408 12.4 22.7624 12.4C19.884 12.4 17.4373 13.4072 15.4224 15.4216C13.4075 17.436 12.4 19.8821 12.4 22.76C12.4 25.66 13.4075 28.1249 15.4224 30.1548C17.4373 32.1849 19.884 33.2 22.7624 33.2ZM21.6 27.28V16.6H24V27.28H21.6ZM15.8 27.28V19.92H18.2V27.28H15.8ZM27.4 27.28V21.56H29.8V27.28H27.4ZM40.28 42L30.96 32.64C29.84 33.5733 28.5835 34.3 27.1904 34.82C25.7971 35.34 24.3203 35.6 22.76 35.6C19.2133 35.6 16.2 34.3533 13.72 31.86C11.24 29.3667 10 26.3373 10 22.772C10 19.2064 11.2373 16.1864 13.712 13.712C16.1864 11.2373 19.2064 10 22.772 10C26.3373 10 29.3667 11.24 31.86 13.72C34.3533 16.2 35.6 19.2133 35.6 22.76C35.6 24.3203 35.34 25.7971 34.82 27.1904C34.3 28.5835 33.5733 29.84 32.64 30.96L41.96 40.28L40.28 42Z" fill="#5F6368"/>
</mask>
<g mask="url(#mask0_4454_420)">
<rect x="-22" y="-24" width="100" height="100" fill="url(#paint0_radial_4454_420)"/>
</g>
<defs>
<radialGradient id="paint0_radial_4454_420" cx="0" cy="0" r="1" gradientUnits="userSpaceOnUse" gradientTransform="translate(51.5 2) rotate(132.732) scale(71.4738 71.4738)">
<stop stop-color="#CF4D8A"/>
<stop offset="1" stop-color="#692746"/>
</radialGradient>
</defs>
</svg>
