<svg width="17" height="17" viewBox="0 0 17 17" fill="none" xmlns="http://www.w3.org/2000/svg">
<path fill-rule="evenodd" clip-rule="evenodd" d="M7.11026 15.1444C7.45481 15.2068 7.68403 15.54 7.62224 15.8887C7.5604 16.2371 7.23118 16.4691 6.88653 16.4065C5.75064 16.2003 4.69296 15.7529 3.74311 15.076C3.38016 14.8174 3.04306 14.5315 2.73316 14.2224C2.73272 14.2219 2.73225 14.2215 2.73177 14.2211C2.73126 14.2207 2.73074 14.2203 2.73024 14.2197L2.72208 14.2113C1.5686 13.0557 0.798819 11.5706 0.515966 9.92026C0.488135 9.75851 0.465931 9.59672 0.448236 9.43531L0.446548 9.42591L0.446546 9.4259C0.445241 9.41889 0.443955 9.41197 0.44332 9.4048C0.426201 9.24428 0.413591 9.08122 0.406438 8.92039L0.406447 8.91242L0.406438 8.90397C0.332606 7.25757 0.763123 5.64039 1.65568 4.24155L1.66114 4.23179C1.66501 4.22478 1.66887 4.21777 1.67348 4.21084C1.72738 4.12663 1.78372 4.04243 1.84087 3.96029C1.87582 3.91016 1.91152 3.86004 1.94748 3.81105C1.95429 3.80164 1.96159 3.79298 1.96886 3.78436L1.9746 3.77752C3.05622 2.31536 4.57201 1.29057 6.30933 0.839356L6.3173 0.837029L6.3173 0.837028C6.32221 0.835571 6.32718 0.834095 6.33211 0.832876L6.33608 0.832156C6.5334 0.781552 6.73347 0.73808 6.93639 0.702562C8.95111 0.349228 10.9809 0.787346 12.6733 1.93631L13.1698 1.21083C13.3076 1.00941 13.4732 1.03766 13.5379 1.27367L14.1156 3.37893C14.1805 3.61467 14.0362 3.82582 13.7948 3.84776L11.6434 4.04257C11.4023 4.06451 11.3176 3.9177 11.4553 3.71625L11.9506 2.99248C9.64448 1.43727 6.69551 1.53927 4.5237 3.05271L4.50099 3.06876C3.88467 3.50225 3.33185 4.04919 2.87503 4.70477C0.774174 7.72079 1.4912 11.9031 4.47336 14.0277C4.67788 14.1733 4.88839 14.3062 5.10409 14.4263L5.10414 14.4263C5.10477 14.4266 5.10549 14.4269 5.10588 14.4274C5.22344 14.4921 5.34474 14.5541 5.46623 14.6119C5.47013 14.6137 5.47367 14.6157 5.47723 14.6178L5.4842 14.6217C5.99976 14.8662 6.54347 15.0414 7.11026 15.1444ZM14.49 6.13168C14.541 6.25478 14.5889 6.38114 14.632 6.50713C14.6776 6.63962 14.7645 6.74779 14.8744 6.82253C15.0372 6.93325 15.2504 6.9705 15.4538 6.90559C15.7947 6.79632 15.9795 6.44145 15.8667 6.11252C15.8153 5.96257 15.7583 5.81215 15.6975 5.66569C15.5641 5.34384 15.1859 5.18714 14.8522 5.31588C14.5189 5.44455 14.3565 5.80973 14.49 6.13168ZM10.6782 15.5407C10.5902 15.2028 10.2325 14.9972 9.87888 15.0813C9.7436 15.1136 9.60566 15.1422 9.46875 15.1663C9.11085 15.2299 8.87424 15.5589 8.94043 15.9012C8.97313 16.0697 9.07322 16.2099 9.20911 16.3015C9.34916 16.3957 9.5274 16.4383 9.70903 16.406C9.87208 16.3771 10.0364 16.3431 10.1976 16.3046C10.5511 16.2205 10.7664 15.8783 10.6782 15.5407ZM11.9912 14.2272C12.2869 14.0396 12.685 14.1176 12.8804 14.4016C13.0758 14.6855 12.9944 15.0678 12.6988 15.2553C12.5639 15.3409 12.4248 15.4233 12.2848 15.5008C12.0609 15.6246 11.792 15.6046 11.594 15.4709C11.5203 15.4208 11.4562 15.3553 11.4082 15.2751C11.2311 14.9804 11.3363 14.6035 11.6434 14.4335C11.7611 14.3684 11.878 14.299 11.9912 14.2272ZM16.21 8.79544C16.2135 8.63013 16.2122 8.46264 16.206 8.29744C16.1925 7.93508 15.9035 7.65304 15.5604 7.66719C15.2177 7.68148 14.9505 7.98679 14.9639 8.34901C14.9691 8.4875 14.9704 8.62806 14.9674 8.76641C14.9626 8.99365 15.0678 9.19621 15.2313 9.31795C15.3287 9.39041 15.4469 9.43426 15.5751 9.43735C15.9182 9.44538 16.2024 9.15798 16.21 8.79544ZM14.4993 12.4854C14.7821 12.7025 14.8396 13.1127 14.6272 13.402C14.53 13.5343 14.4279 13.665 14.3232 13.7907C14.1067 14.0503 13.7347 14.0946 13.467 13.9017C13.4509 13.8902 13.4354 13.878 13.42 13.8647C13.1508 13.6303 13.1184 13.217 13.3476 12.9418C13.4353 12.8364 13.5209 12.727 13.6023 12.6162C13.8146 12.327 14.2158 12.268 14.4993 12.4854ZM15.8698 10.9811C15.9776 10.6508 15.786 10.2991 15.4417 10.1955C15.0973 10.092 14.7306 10.2759 14.6227 10.6062C14.5814 10.7323 14.5356 10.8591 14.4862 10.9833C14.3777 11.2567 14.4817 11.5574 14.72 11.7186C14.7637 11.7481 14.8119 11.773 14.8642 11.792C15.2013 11.9154 15.5789 11.7532 15.7074 11.4296C15.7661 11.282 15.8205 11.1311 15.8698 10.9811ZM8.39215 3.91718C8.39212 3.62945 8.16327 3.39584 7.88075 3.39584C7.59789 3.39584 7.36878 3.62945 7.36878 3.91718V9.11115L12.0319 11.5668C12.107 11.6064 12.1873 11.625 12.2664 11.625C12.4516 11.625 12.6305 11.5223 12.7215 11.343C12.8512 11.0871 12.753 10.7728 12.5018 10.6407L8.39215 8.47628V3.91718Z" fill="#3A3B3F"/>
</svg>
