<svg width="20" height="19" viewBox="0 0 20 19" fill="none" xmlns="http://www.w3.org/2000/svg">
<path fill-rule="evenodd" clip-rule="evenodd" d="M17.4282 8.65557C17.0454 5.18057 14.2905 2.42223 10.8198 2.0389V0.322235H9.15524V2.0389C5.68457 2.42223 2.92967 5.18057 2.54682 8.65557H0.832291V10.3222H2.54682C2.92967 13.7972 5.68457 16.5556 9.15524 16.9389V18.6556H10.8198V16.9389C14.2905 16.5556 17.0454 13.7972 17.4282 10.3222H19.1428V8.65557H17.4282ZM9.98753 6.15557C8.14816 6.15557 6.65835 7.64723 6.65835 9.4889C6.65835 11.3306 8.14816 12.8222 9.98753 12.8222C11.8269 12.8222 13.3167 11.3306 13.3167 9.4889C13.3167 7.64723 11.8269 6.15557 9.98753 6.15557ZM4.16147 9.4889C4.16147 12.7139 6.76655 15.3222 9.98753 15.3222C13.2085 15.3222 15.8136 12.7139 15.8136 9.4889C15.8136 6.2639 13.2085 3.65557 9.98753 3.65557C6.76655 3.65557 4.16147 6.2639 4.16147 9.4889Z" fill="#3A3B3F"/>
</svg>
