<svg width="17" height="17" viewBox="0 0 17 17" fill="none" xmlns="http://www.w3.org/2000/svg">
<path fill-rule="evenodd" clip-rule="evenodd" d="M13.8102 14.0998C15.8056 12.0865 16.5749 9.15363 15.818 6.44572L14.4946 6.84009C15.1167 9.0656 14.4848 11.4756 12.8452 13.1301C10.3619 15.6366 6.3478 15.6737 3.89904 13.2109C1.4502 10.7485 1.47801 6.70617 3.96108 4.19969C5.16412 2.98537 6.75729 2.30856 8.4471 2.29336C9.92202 2.28031 11.317 2.77307 12.4363 3.69141L10.7402 4.01718L10.9495 5.22216L13.6275 4.70687L13.6275 4.70771L14.8274 4.47664L14.6183 3.27263L14.6178 3.27255L14.1493 0.583344L12.9489 0.814006L13.2545 2.56603C11.9012 1.47758 10.2273 0.893612 8.45664 0.909302C6.39995 0.927817 4.46078 1.7519 2.99613 3.22997C-0.0263554 6.28086 -0.0604737 11.201 2.92041 14.198C3.20746 14.4864 3.51177 14.7463 3.83063 14.9785C6.82484 17.1579 11.0783 16.8567 13.8102 14.0998ZM4.28271 9.19212H4.75415L5.39184 10.4792H6.3248V10.4416L5.57049 8.97176C5.78719 8.86827 5.94641 8.73305 6.04814 8.56612C6.14987 8.39918 6.20074 8.18885 6.20074 7.93511C6.20074 7.58454 6.07999 7.31328 5.83847 7.1213C5.59696 6.92933 5.26199 6.83334 4.83355 6.83334H3.41177V10.4792H4.28271V9.19212ZM4.24407 8.60418H4.79008C4.95405 8.60418 5.07743 8.5586 5.16023 8.46746C5.24304 8.37631 5.28444 8.24914 5.28444 8.08595C5.28444 7.92275 5.24263 7.79472 5.159 7.70183C5.07538 7.60895 4.95241 7.56251 4.79008 7.56251H4.24407V8.60418ZM7.42509 10.4792V9.2422H7.99448C8.44525 9.2422 8.79984 9.13578 9.05827 8.92294C9.3167 8.7101 9.44591 8.42589 9.44591 8.07032C9.44591 7.82994 9.38618 7.61501 9.2667 7.42554C9.14723 7.23607 8.97862 7.09 8.76086 6.98734C8.54311 6.88468 8.29273 6.83334 8.00973 6.83334H6.53288V10.4792H7.42509ZM7.36517 8.60418H7.96475C8.14202 8.60418 8.27714 8.56201 8.37011 8.47769C8.46309 8.39336 8.50958 8.27432 8.50958 8.12055C8.50958 7.95189 8.46179 7.81714 8.3662 7.71628C8.27062 7.61542 8.14028 7.56416 7.97518 7.56251H7.36517V8.60418ZM11.6307 9.3699L10.8133 6.83334H9.65398V10.4792H10.5367V9.62781L10.4512 7.88252L11.339 10.4792H11.9224L12.8076 7.88503L12.7221 9.62781V10.4792H13.6074V6.83334H12.4455L11.6307 9.3699Z" fill="#3A3B3F"/>
</svg>
