<?xml version="1.0" encoding="utf-8"?>
<!-- Generator: Adobe Illustrator 27.0.0, SVG Export Plug-In . SVG Version: 6.00 Build 0)  -->
<svg version="1.1" id="Camada_1" xmlns="http://www.w3.org/2000/svg" xmlns:xlink="http://www.w3.org/1999/xlink" x="0px" y="0px"
	 viewBox="0 0 512.5 216.2" style="enable-background:new 0 0 512.5 216.2;" xml:space="preserve">
<style type="text/css">
	.st0{fill:#692746;}
</style>
<g>
	<g>
		<path class="st0" d="M192.5,216.2c-0.5-3.5-1-7-1.5-10.8c6.4-1.4,9.8-5.9,12.2-11.3c0.4-1,0.5-2.5,0.1-3.5
			c-5.3-13.5-10.7-26.9-16.1-40.4c-0.3-0.7-0.6-1.5-0.9-2.5c0.8-0.1,1.3-0.3,1.9-0.4c2.9,0,5.8,0.1,8.6-0.1c1.8-0.1,2.5,0.6,3,2.2
			c3,8.7,6,17.3,9,25.9c0.3,0.9,0.6,1.8,1.2,3.2c1.9-4.4,3.6-8.3,5.3-12.2c2.4-5.7,4.8-11.5,7.1-17.2c0.6-1.4,1.3-1.9,2.8-1.9
			c3.3,0.1,6.5,0,10.1,0c-0.3,1-0.5,1.6-0.8,2.2c-6.7,15.7-13.3,31.4-20.2,47c-2,4.4-4.8,8.6-7.7,12.5c-2.9,3.9-7.3,5.8-12.1,6.7
			c-0.5,0.1-0.9,0.3-1.3,0.5C192.8,216.2,192.6,216.2,192.5,216.2z"/>
		<path class="st0" d="M37.8,0c27-0.2,53.9,0.7,80.2,7.4c10.2,2.6,20,6.1,28.9,11.9c8.8,5.8,15.4,13.3,17.1,24
			c1.7,9.9-0.9,19.2-5.7,27.8c-6.5,11.7-15.8,21-26.1,29.4c-19.8,16-42,27.9-65.1,38.2c-21.2,9.4-42.9,17.2-65.3,23.1
			c-0.5,0.1-1.1,0.2-1.8-0.1c1.5-0.8,2.9-1.6,4.4-2.4c21.4-11.1,42.2-23.3,61.1-38.5C78.2,110.5,89.7,99,97.9,84.7
			c5-8.8,8.2-18.1,8.7-28.3c0.8-17.1-6.3-30.3-20.2-39.9C75.4,8.7,62.8,4.6,49.7,2C45.8,1.2,41.8,0.7,37.8,0z"/>
		<path class="st0" d="M125.6,128.5c0.4-0.1,0.9-0.3,1.3-0.3c8.9,0.1,17.8-0.2,26.6,0.3c17.2,1,28.5,13,29,30.2
			c0.3,10.6-2.6,19.9-11,26.9c-4.7,4-10.3,6.2-16.4,6.4c-9.3,0.4-18.5,0.3-27.8,0.4c-1.2,0-2-0.2-2-1.7c0-20.5,0-41,0.1-61.5
			C125.4,129.1,125.5,128.8,125.6,128.5z M137.3,180.7c5.7,0,11.2,0.4,16.6-0.1c6.4-0.6,11.5-3.9,14.3-9.8
			c3.2-6.7,3.1-13.6,0.2-20.4c-1.9-4.4-5.1-7.5-9.6-9.2c-7-2.7-14.3-1.2-21.6-1.6C137.3,153.5,137.3,166.9,137.3,180.7z"/>
		<path class="st0" d="M355.5,192.3c-3.9,0-7.3,0-10.9,0c0-15,0-29.8,0-45c3.2,0,6.3-0.1,9.4,0.1c0.6,0,1.2,1,1.8,1.6
			c8.9-4.1,16.9-2.5,24.3,4.1c0.5-0.4,1-0.8,1.5-1.2c6.7-5.5,14.1-6.8,21.9-3.2c7.8,3.5,11.9,9.9,12.1,18.5
			c0.1,7.4,0.1,14.8,0.1,22.3c0,0.9,0,1.7,0,2.9c-3.4,0-6.6,0.1-9.7-0.1c-0.4,0-1.1-1.4-1.1-2.1c-0.1-7.6,0.1-15.2,0-22.7
			c0-6-4.7-10.3-10.5-9.9c-4.3,0.3-8.1,3.7-8.5,8c-0.3,2.8-0.1,5.6-0.1,8.3c0,5.4,0,10.9,0,16.3c0,1.6-0.5,2.3-2.2,2.2
			c-2.2-0.1-4.5-0.1-6.7,0c-1.8,0.1-2.3-0.6-2.3-2.3c0.1-7.7,0-15.3,0-23c0-4.7-2.6-8.1-7.1-9.3c-4.1-1.1-8.5,0.7-10.7,4.5
			c-0.7,1.3-1.1,2.8-1.1,4.3c-0.1,7.6-0.1,15.2-0.1,22.7C355.5,190.3,355.5,191.2,355.5,192.3z"/>
		<path class="st0" d="M326.4,150.2c-0.4-2.7,1.1-2.9,3-2.8c2.4,0.1,4.7,0,7.3,0c0.1,1,0.2,1.7,0.2,2.4c0,13.4,0,26.8,0.1,40.2
			c0,2.2-0.7,2.8-2.7,2.6c-1.4-0.1-2.9-0.1-4.3,0c-2.2,0.2-3.9-0.1-3.5-3.3c-7,4.2-14.1,5.7-21.7,3.1c-5-1.7-9-4.8-12-9.1
			c-5.9-8.8-5.4-20.3,1.3-28.5C301.6,145.4,311.5,144,326.4,150.2z M312.5,156.6c-7.3,0-13.3,5.8-13.4,13.1
			c-0.1,7.2,6.1,13.4,13.4,13.4c7.2,0,13.3-6.1,13.3-13.3C325.8,162.6,319.7,156.6,312.5,156.6z"/>
		<path class="st0" d="M130.1,110c6.9-5.4,14.3-10.9,21.2-16.9c9.6-8.4,17.6-18.1,21.8-30.4c4.3-12.8,3.6-25-5.5-35.8
			c-4.7-5.6-10.5-9.9-17-12.9c-6.3-2.9-12.7-5.4-19.3-8.2c5,1.4,10,2.6,14.9,4c9.5,2.9,18.6,6.7,26.6,12.8
			c12.9,9.9,16.8,23.4,10.8,38.5c-1.7,4.2-4.3,8-6.5,11.9c-0.4,0.7-0.9,1.3-0.9,2.3c1.4-1.5,2.9-3,4.3-4.5
			c5.4-6,10.2-12.5,12.7-20.3c3.1-9.5,1-17.8-5.9-24.9c-4.2-4.3-9.2-7.4-14.5-10c-0.8-0.4-1.6-0.8-2.2-1.5c1.5,0.5,3,1,4.5,1.5
			c7.4,2.8,14.6,6,20.7,11.3c5.5,4.7,8.8,10.5,8.2,18c-0.5,5.2-2.8,9.6-5.7,13.8c-6.4,9.1-14.7,16.3-23.5,23.1
			c-13.9,10.7-28.8,19.8-44.2,28.2C130.3,110,130,110.1,130.1,110z"/>
		<path class="st0" d="M444.4,193.7c-13.5,0-23.8-10.5-23.7-24.2c0.1-13.1,10.9-23.8,23.9-23.6c13.3,0.1,23.8,10.7,23.8,24
			C468.3,183.3,457.8,193.8,444.4,193.7z M457.8,170c0-7.5-5.8-13.4-13.2-13.4c-7.4,0-13.4,5.9-13.4,13.3c0,7.3,5.9,13.2,13.2,13.3
			C451.8,183.2,457.8,177.4,457.8,170z"/>
		<path class="st0" d="M273.1,192.5c0-8.2,0.1-15.9,0-23.6c-0.1-4.9-2.4-8.6-6.9-10.6c-4.3-2-8.5-1.4-12.1,1.6
			c-2.8,2.3-4.2,5.3-4.2,9c0,7.1,0,14.2,0,21.3c0,1.8-0.5,2.5-2.3,2.3c-2.1-0.1-4.3-0.1-6.5,0c-1.9,0.1-2.5-0.5-2.5-2.4
			c0.1-11.3,0-22.7,0-34c0-2.3,0-4.6,0-6.9c0-1.3,0.4-1.9,1.8-1.8c2.1,0.1,4.2,0.1,6.2,0c1.7-0.1,3.2,0,2.8,2.1
			c3.6-0.9,7.2-2.3,10.8-2.6c12.2-1,22.8,8.4,23.3,20.6c0.3,7.7,0.1,15.5,0.2,23.2c0,1.4-0.5,2-1.9,1.9
			C279,192.5,276.2,192.5,273.1,192.5z"/>
		<path class="st0" d="M512.5,192.5c-4.2,0-7.9,0.1-11.6-0.1c-0.7,0-1.5-0.8-2-1.5c-3-4-5.8-8-9-12.3c-2.1,2.9-4.3,5.4-5.9,8.3
			c-2.5,4.5-5.8,6.6-11,5.7c-1.7-0.3-3.4,0-5.8,0c5.7-7.9,11-15.2,16.3-22.6c-5.4-7.4-10.7-14.8-16.3-22.6c4.4,0,8.2-0.1,11.9,0.1
			c0.7,0,1.4,1,1.9,1.6c2.9,3.9,5.7,7.8,8.8,12.1c2.4-3.3,5-6.3,6.9-9.6c2-3.3,4.4-4.8,8.3-4.3c2.2,0.3,4.6,0.1,7.3,0.1
			c-0.7,1-1.1,1.8-1.6,2.4c-4.4,6.1-8.8,12.3-13.4,18.4c-1,1.3-1.1,2.1,0,3.5c4.6,6.1,9,12.4,13.5,18.6
			C511.5,190.8,511.8,191.5,512.5,192.5z"/>
	</g>
</g>
</svg>
