<svg width="21" height="21" viewBox="0 0 21 21" fill="none" xmlns="http://www.w3.org/2000/svg">
<path fill-rule="evenodd" clip-rule="evenodd" d="M15.8102 16.0998C17.8056 14.0865 18.5749 11.1536 17.818 8.44572L16.4946 8.84009C17.1167 11.0656 16.4848 13.4756 14.8452 15.1301C12.3619 17.6366 8.3478 17.6737 5.89904 15.2109C3.4502 12.7485 3.47801 8.70617 5.96108 6.19969C7.16412 4.98537 8.75729 4.30856 10.4471 4.29336C11.922 4.28031 13.317 4.77307 14.4363 5.69141L12.7402 6.01718L12.9495 7.22216L15.6275 6.70687L15.6275 6.70771L16.8274 6.47664L16.6183 5.27263L16.6178 5.27255L16.1493 2.58334L14.9489 2.81401L15.2545 4.56603C13.9012 3.47758 12.2273 2.89361 10.4566 2.9093C8.39995 2.92782 6.46078 3.7519 4.99613 5.22997C1.97364 8.28086 1.93953 13.201 4.92041 16.198C5.20746 16.4864 5.51177 16.7463 5.83063 16.9785C8.82484 19.1579 13.0783 18.8567 15.8102 16.0998ZM6.28271 11.1921H6.75415L7.39184 12.4792H8.3248V12.4416L7.57049 10.9718C7.78719 10.8683 7.94641 10.7331 8.04814 10.5661C8.14987 10.3992 8.20074 10.1888 8.20074 9.93511C8.20074 9.58454 8.07999 9.31328 7.83847 9.1213C7.59696 8.92933 7.26199 8.83334 6.83355 8.83334H5.41177V12.4792H6.28271V11.1921ZM6.24407 10.6042H6.79008C6.95405 10.6042 7.07743 10.5586 7.16023 10.4675C7.24304 10.3763 7.28444 10.2491 7.28444 10.0859C7.28444 9.92275 7.24263 9.79472 7.159 9.70183C7.07538 9.60895 6.95241 9.56251 6.79008 9.56251H6.24407V10.6042ZM9.42509 12.4792V11.2422H9.99448C10.4452 11.2422 10.7998 11.1358 11.0583 10.9229C11.3167 10.7101 11.4459 10.4259 11.4459 10.0703C11.4459 9.82994 11.3862 9.61501 11.2667 9.42554C11.1472 9.23607 10.9786 9.09 10.7609 8.98734C10.5431 8.88468 10.2927 8.83334 10.0097 8.83334H8.53288V12.4792H9.42509ZM9.36517 10.6042H9.96475C10.142 10.6042 10.2771 10.562 10.3701 10.4777C10.4631 10.3934 10.5096 10.2743 10.5096 10.1205C10.5096 9.95189 10.4618 9.81714 10.3662 9.71628C10.2706 9.61542 10.1403 9.56416 9.97518 9.56251H9.36517V10.6042ZM13.6307 11.3699L12.8133 8.83334H11.654V12.4792H12.5367V11.6278L12.4512 9.88252L13.339 12.4792H13.9224L14.8076 9.88503L14.7221 11.6278V12.4792H15.6074V8.83334H14.4455L13.6307 11.3699Z" fill="#3A3B3F"/>
</svg>
