<svg width="52" height="52" viewBox="0 0 52 52" fill="none" xmlns="http://www.w3.org/2000/svg">
<mask id="mask0_6277_15" style="mask-type:alpha" maskUnits="userSpaceOnUse" x="0" y="0" width="52" height="52">
<rect x="1" y="1" width="50" height="50" rx="7" stroke="black" stroke-width="2"/>
<path d="M17.0667 33.3334C15.0667 33.3334 13.3889 32.6056 12.0333 31.1501C10.6778 29.6945 10 27.9556 10 25.9334C10 23.9334 10.6833 22.2223 12.05 20.8001C13.4167 19.3779 15.0889 18.6667 17.0667 18.6667C17.8667 18.6667 18.6389 18.8001 19.3833 19.0667C20.1278 19.3334 20.7889 19.7445 21.3667 20.3001L24.4667 23.3001L23.0667 24.7001L20.1 21.8001C19.7 21.4001 19.2389 21.1112 18.7167 20.9334C18.1944 20.7556 17.6444 20.6667 17.0667 20.6667C15.6444 20.6667 14.4444 21.1834 13.4667 22.2167C12.4889 23.2501 12 24.489 12 25.9334C12 27.4001 12.4833 28.6667 13.45 29.7334C14.4167 30.8001 15.6222 31.3334 17.0667 31.3334C17.6222 31.3334 18.1611 31.2445 18.6833 31.0667C19.2056 30.889 19.6778 30.6112 20.1 30.2334L30.6333 20.3001C31.2111 19.7445 31.8722 19.3334 32.6167 19.0667C33.3611 18.8001 34.1222 18.6667 34.9 18.6667C36.9 18.6667 38.5833 19.3779 39.95 20.8001C41.3167 22.2223 42 23.9334 42 25.9334C42 27.9556 41.3167 29.6945 39.95 31.1501C38.5833 32.6056 36.9 33.3334 34.9 33.3334C34.1222 33.3334 33.3556 33.2056 32.6 32.9501C31.8444 32.6945 31.1889 32.289 30.6333 31.7334L27.6 28.7334L29 27.3334L31.9 30.2334C32.2778 30.6112 32.7333 30.889 33.2667 31.0667C33.8 31.2445 34.3444 31.3334 34.9 31.3334C36.3444 31.3334 37.5556 30.8001 38.5333 29.7334C39.5111 28.6667 40 27.4001 40 25.9334C40 24.489 39.5056 23.2501 38.5167 22.2167C37.5278 21.1834 36.3222 20.6667 34.9 20.6667C34.3444 20.6667 33.8056 20.7667 33.2833 20.9667C32.7611 21.1667 32.3 21.4556 31.9 21.8334L21.3667 31.7667C20.7889 32.3001 20.1222 32.6945 19.3667 32.9501C18.6111 33.2056 17.8444 33.3334 17.0667 33.3334Z" fill="#5F6368"/>
</mask>
<g mask="url(#mask0_6277_15)">
<path d="M-22 -22.4639H78V71.1361H-22V-22.4639Z" fill="url(#paint0_radial_6277_15)"/>
</g>
<defs>
<radialGradient id="paint0_radial_6277_15" cx="0" cy="0" r="1" gradientUnits="userSpaceOnUse" gradientTransform="translate(51.5 1.87214) rotate(134.624) scale(69.0434 69.2544)">
<stop stop-color="#CF4D8A"/>
<stop offset="1" stop-color="#692746"/>
</radialGradient>
</defs>
</svg>
