<svg width="161" height="32" viewBox="0 0 161 32" fill="none" xmlns="http://www.w3.org/2000/svg">
<path fill-rule="evenodd" clip-rule="evenodd" d="M130.722 1.97412H132.626V18.9506H130.804V17.1687H130.769C129.861 18.3776 128.467 19.0938 126.803 19.0938C123.64 19.0938 121.186 16.8421 121.186 13.4102C121.186 10.0871 123.552 7.58901 126.792 7.58901C128.332 7.58901 129.732 8.22499 130.687 9.3938H130.722V1.97412ZM29.6211 18.7672V2.63301H34.6058C39.8893 2.63301 43.2574 5.96184 43.2574 10.7288C43.2574 15.4842 39.9889 18.7672 34.6761 18.7672H29.6211ZM31.6419 16.7906H34.5121C38.4835 16.7906 41.0667 14.1435 41.0667 10.4824C41.0667 6.74678 38.4601 4.11695 34.6 4.11695H31.6419V16.7906ZM56.554 7.40567H54.5039L51.0011 15.9598H50.9425L47.1644 7.40567H45.1084L50.0111 18.2057L47.9376 23.2133H49.9818L56.554 7.40567ZM65.0415 7.57182C67.5251 7.57182 69.1769 9.03284 69.1769 12.207V18.7672H67.2557V12.7169C67.2557 10.1214 66.1252 9.25629 64.4382 9.25629C62.2709 9.25629 60.8241 10.7517 60.8241 13.2383V18.7558H58.9087V7.7036H60.8241V9.61152H60.8593C61.8199 8.29374 63.3311 7.57182 65.0415 7.57182ZM83.1471 7.54318H81.2435V9.18754H81.1966C80.2477 8.03018 78.8419 7.40567 77.2838 7.40567C74.0563 7.40567 71.7015 9.87508 71.7015 13.1523C71.7015 16.5442 74.15 18.7672 77.2955 18.7672C78.9766 18.7672 80.3765 18.0568 81.2903 16.865H81.3255V18.624H83.1471V7.54318ZM77.4302 17.2833C79.4921 17.2833 81.2962 15.702 81.2962 13.33C81.2962 11.0267 79.6561 9.21619 77.4536 9.21619C75.2571 9.21619 73.5525 10.8376 73.5525 13.33C73.5525 15.5874 75.0872 17.2833 77.4302 17.2833ZM86.8491 2.63301V18.7672H88.9051V12.6138H92.3727C95.8873 12.6138 98.2947 11.0496 98.2947 7.63485C98.2947 4.77011 96.6663 2.63301 92.7301 2.63301H86.8491ZM89.034 10.7001H92.3142C95.1199 10.7001 96.2739 9.28494 96.2739 7.37129C96.2739 5.25138 94.8856 4.11695 92.6363 4.11695H89.034V10.7001ZM107.216 9.62298V7.59474C107.075 7.57182 106.917 7.57182 106.747 7.57182C105.218 7.57182 103.918 8.32812 103.08 9.63444H103.033V7.7036H101.153V18.7672H103.033V13.4274C103.033 11.21 104.328 9.5886 106.466 9.5886C106.659 9.5886 106.94 9.60006 107.216 9.62298ZM118.995 12.8659V12.906C118.995 13.1753 118.96 13.5649 118.937 13.6565H118.743L110.168 13.6623C110.408 15.7191 111.919 17.0656 113.969 17.0656C115.387 17.0656 116.476 16.4296 117.185 15.5759L118.515 16.676C117.543 17.9078 115.984 18.7672 113.899 18.7672C110.66 18.7672 108.223 16.464 108.223 13.0836C108.223 9.7433 110.607 7.40567 113.682 7.40567C116.869 7.40567 118.995 9.686 118.995 12.8659ZM110.244 12.0179C110.59 10.2761 111.99 9.21619 113.735 9.21619C115.498 9.21619 116.687 10.3392 116.974 12.0179H110.244ZM130.945 13.33C130.945 15.702 129.176 17.2833 127.184 17.2833C124.882 17.2833 123.371 15.5874 123.371 13.33C123.371 10.8376 125.052 9.21619 127.207 9.21619C129.334 9.21619 130.945 11.0267 130.945 13.33ZM137.341 5.429C136.574 5.429 135.994 4.84459 135.994 4.12268C135.994 3.38357 136.574 2.79917 137.341 2.79917C138.085 2.79917 138.688 3.38357 138.688 4.12268C138.688 4.84459 138.085 5.429 137.341 5.429ZM136.497 18.7672H138.354V7.57182H136.497V18.7672ZM147.141 18.7672C143.884 18.7672 141.547 16.4582 141.547 13.1065C141.547 9.74903 143.884 7.40567 147.211 7.40567C148.904 7.40567 150.661 8.08748 151.774 9.38234L150.468 10.4939C149.765 9.66881 148.652 9.10733 147.299 9.10733C145.02 9.10733 143.456 10.746 143.456 13.0893C143.456 15.4556 145.032 17.0713 147.299 17.0713C148.628 17.0713 149.806 16.5098 150.509 15.7478L151.815 16.888C150.854 17.9479 149.161 18.7672 147.141 18.7672ZM154.627 15.6275C154.627 17.8792 155.575 19.0938 157.62 19.0938C158.979 19.0938 159.775 18.75 160.402 18.4005L159.892 16.7791C159.348 17.0828 158.633 17.352 157.954 17.352C156.87 17.352 156.542 16.6932 156.542 15.3467V9.41099H160.355V7.801H156.542V3.78464L154.627 3.98517V7.801H153.162V9.41099H154.627V15.6275Z" fill="white"/>
<path fill-rule="evenodd" clip-rule="evenodd" d="M130.722 1.97412H132.626V18.9506H130.804V17.1687H130.769C129.861 18.3776 128.467 19.0938 126.803 19.0938C123.64 19.0938 121.186 16.8421 121.186 13.4102C121.186 10.0871 123.552 7.58901 126.792 7.58901C128.332 7.58901 129.732 8.22499 130.687 9.3938H130.722V1.97412ZM29.6211 18.7672V2.63301H34.6058C39.8893 2.63301 43.2574 5.96184 43.2574 10.7288C43.2574 15.4842 39.9889 18.7672 34.6761 18.7672H29.6211ZM31.6419 16.7906H34.5121C38.4835 16.7906 41.0667 14.1435 41.0667 10.4824C41.0667 6.74678 38.4601 4.11695 34.6 4.11695H31.6419V16.7906ZM56.554 7.40567H54.5039L51.0011 15.9598H50.9425L47.1644 7.40567H45.1084L50.0111 18.2057L47.9376 23.2133H49.9818L56.554 7.40567ZM65.0415 7.57182C67.5251 7.57182 69.1769 9.03284 69.1769 12.207V18.7672H67.2557V12.7169C67.2557 10.1214 66.1252 9.25629 64.4382 9.25629C62.2709 9.25629 60.8241 10.7517 60.8241 13.2383V18.7558H58.9087V7.7036H60.8241V9.61152H60.8593C61.8199 8.29374 63.3311 7.57182 65.0415 7.57182ZM83.1471 7.54318H81.2435V9.18754H81.1966C80.2477 8.03018 78.8419 7.40567 77.2838 7.40567C74.0563 7.40567 71.7015 9.87508 71.7015 13.1523C71.7015 16.5442 74.15 18.7672 77.2955 18.7672C78.9766 18.7672 80.3765 18.0568 81.2903 16.865H81.3255V18.624H83.1471V7.54318ZM77.4302 17.2833C79.4921 17.2833 81.2962 15.702 81.2962 13.33C81.2962 11.0267 79.6561 9.21619 77.4536 9.21619C75.2571 9.21619 73.5525 10.8376 73.5525 13.33C73.5525 15.5874 75.0872 17.2833 77.4302 17.2833ZM86.8491 2.63301V18.7672H88.9051V12.6138H92.3727C95.8873 12.6138 98.2947 11.0496 98.2947 7.63485C98.2947 4.77011 96.6663 2.63301 92.7301 2.63301H86.8491ZM89.034 10.7001H92.3142C95.1199 10.7001 96.2739 9.28494 96.2739 7.37129C96.2739 5.25138 94.8856 4.11695 92.6363 4.11695H89.034V10.7001ZM107.216 9.62298V7.59474C107.075 7.57182 106.917 7.57182 106.747 7.57182C105.218 7.57182 103.918 8.32812 103.08 9.63444H103.033V7.7036H101.153V18.7672H103.033V13.4274C103.033 11.21 104.328 9.5886 106.466 9.5886C106.659 9.5886 106.94 9.60006 107.216 9.62298ZM118.995 12.8659V12.906C118.995 13.1753 118.96 13.5649 118.937 13.6565H118.743L110.168 13.6623C110.408 15.7191 111.919 17.0656 113.969 17.0656C115.387 17.0656 116.476 16.4296 117.185 15.5759L118.515 16.676C117.543 17.9078 115.984 18.7672 113.899 18.7672C110.66 18.7672 108.223 16.464 108.223 13.0836C108.223 9.7433 110.607 7.40567 113.682 7.40567C116.869 7.40567 118.995 9.686 118.995 12.8659ZM110.244 12.0179C110.59 10.2761 111.99 9.21619 113.735 9.21619C115.498 9.21619 116.687 10.3392 116.974 12.0179H110.244ZM130.945 13.33C130.945 15.702 129.176 17.2833 127.184 17.2833C124.882 17.2833 123.371 15.5874 123.371 13.33C123.371 10.8376 125.052 9.21619 127.207 9.21619C129.334 9.21619 130.945 11.0267 130.945 13.33ZM137.341 5.429C136.574 5.429 135.994 4.84459 135.994 4.12268C135.994 3.38357 136.574 2.79917 137.341 2.79917C138.085 2.79917 138.688 3.38357 138.688 4.12268C138.688 4.84459 138.085 5.429 137.341 5.429ZM136.497 18.7672H138.354V7.57182H136.497V18.7672ZM147.141 18.7672C143.884 18.7672 141.547 16.4582 141.547 13.1065C141.547 9.74903 143.884 7.40567 147.211 7.40567C148.904 7.40567 150.661 8.08748 151.774 9.38234L150.468 10.4939C149.765 9.66881 148.652 9.10733 147.299 9.10733C145.02 9.10733 143.456 10.746 143.456 13.0893C143.456 15.4556 145.032 17.0713 147.299 17.0713C148.628 17.0713 149.806 16.5098 150.509 15.7478L151.815 16.888C150.854 17.9479 149.161 18.7672 147.141 18.7672ZM154.627 15.6275C154.627 17.8792 155.575 19.0938 157.62 19.0938C158.979 19.0938 159.775 18.75 160.402 18.4005L159.892 16.7791C159.348 17.0828 158.633 17.352 157.954 17.352C156.87 17.352 156.542 16.6932 156.542 15.3467V9.41099H160.355V7.801H156.542V3.78464L154.627 3.98517V7.801H153.162V9.41099H154.627V15.6275Z" fill="white"/>
<path d="M132.626 1.97418H133.136V1.48145H132.626V1.97418ZM130.723 1.48145H130.219V1.97418H130.723V1.48145ZM132.626 19.4434H133.136V18.9506H132.626V19.4434ZM130.805 18.9506H130.295V19.4434H130.805V18.9506ZM130.805 17.1688H131.309V16.676H130.805V17.1688ZM130.77 17.1688V16.676H130.512L130.36 16.8766L130.77 17.1688ZM130.688 9.39386L130.289 9.70325L130.447 9.88659H130.688V9.39386ZM130.723 9.88659H131.227V9.39386H130.723V9.88659ZM29.6219 2.14034H29.1182V2.63307H29.6219V2.14034ZM29.6219 18.7673H29.1182V19.26H29.6219V18.7673ZM31.6428 16.7906H31.139V17.2834H31.6428V16.7906ZM31.6428 3.61854H31.139V4.11128H31.6428V3.61854ZM54.5047 7.40573V6.91299H54.1649L54.0361 7.22239L54.5047 7.40573ZM56.5548 7.40573L57.0175 7.5948L57.3046 6.91299H56.5548V7.40573ZM50.996 15.9598V16.4583H51.3416L51.4646 16.1489L50.996 15.9598ZM50.9433 15.9598L50.4747 16.1604L50.6094 16.4583H50.9433V15.9598ZM47.171 7.40573L47.6338 7.21093L47.4991 6.91299H47.171V7.40573ZM45.1092 7.40573V6.91299H44.3302L44.6465 7.60626L45.1092 7.40573ZM50.0119 18.2058L50.4805 18.3891L50.5567 18.2001L50.4688 18.0053L50.0119 18.2058ZM47.9384 23.2134L47.4698 23.0243L47.1886 23.7061H47.9384V23.2134ZM49.9885 23.2134V23.7061H50.3224L50.4513 23.3967L49.9885 23.2134ZM69.1778 19.26H69.6815V18.7673H69.1778V19.26ZM67.2565 18.7673H66.7527V19.26H67.2565V18.7673ZM60.8249 19.2486H61.3287V18.7558H60.8249V19.2486ZM58.9095 18.7558H58.3999V19.2486H58.9095V18.7558ZM58.9095 7.21093H58.3999V7.70366H58.9095V7.21093ZM60.8249 7.70366H61.3287V7.21093H60.8249V7.70366ZM60.8249 9.61158H60.3212V10.1043H60.8249V9.61158ZM60.8601 9.61158V10.1043H61.1237L61.2701 9.89805L60.8601 9.61158ZM81.2443 7.54324V7.04477H80.7405V7.54324H81.2443ZM83.148 7.54324H83.6517V7.04477H83.1421L83.148 7.54324ZM81.2443 9.68033H81.748V9.18187H81.2443V9.68033ZM81.1974 9.1876L80.8049 9.49699L80.9572 9.68033H81.1974V9.1876ZM81.2911 16.8651V16.3724H81.0392L80.8869 16.5672L81.2911 16.8651ZM81.3263 16.8651H81.83V16.3724H81.3263V16.8651ZM81.3263 18.6241H80.8225V19.1168H81.3263V18.6241ZM83.148 19.1168H83.6517V18.6241H83.148V19.1168ZM86.8499 18.7673H86.3462V19.26H86.8499V18.7673ZM86.8499 2.14034H86.3462V2.63307H86.8499V2.14034ZM88.9059 19.26H89.4096V18.7673H88.9059V19.26ZM88.9059 12.1154H88.4021V12.6138H88.9059V12.1154ZM92.315 10.7002V11.1929V10.7002ZM89.0348 10.7002H88.531V11.1929H89.0348V10.7002ZM89.0348 3.61854H88.531V4.11128H89.0348V3.61854ZM107.217 7.5948H107.72V7.17655L107.299 7.1078L107.217 7.5948ZM107.217 9.62304L107.17 10.1158L107.72 10.1616V9.62304H107.217ZM106.748 7.57188V7.07915V7.57188ZM103.081 9.6345V10.1272H103.362L103.509 9.89805L103.081 9.6345ZM103.034 9.6345H102.53V10.1272H103.034V9.6345ZM103.034 7.70366H103.538V7.21093H103.034V7.70366ZM101.154 7.21093H100.65V7.70366H101.154V7.21093ZM101.154 18.7673H100.65V19.26H101.154V18.7673ZM103.034 19.26H103.538V18.7673H103.034V19.26ZM118.937 13.6566V14.1493H119.336L119.429 13.7769L118.937 13.6566ZM118.744 13.6566V13.1581V13.6566ZM110.169 13.6681V13.1696H109.606L109.671 13.7196L110.169 13.6681ZM117.186 15.576L117.514 15.1978L117.122 14.877L116.794 15.2666L117.186 15.576ZM118.516 16.676L118.914 16.9797L119.213 16.6073L118.844 16.2979L118.516 16.676ZM110.245 12.018L109.747 11.9206L109.63 12.5107H110.245V12.018ZM116.975 12.018V12.5107H117.573L117.473 11.932L116.975 12.018ZM136.498 18.7673H135.995V19.26H136.498V18.7673ZM136.498 7.07915H135.995V7.57188H136.498V7.07915ZM138.349 19.26H138.859V18.7673H138.349V19.26ZM138.349 7.57188H138.859V7.07915H138.349V7.57188ZM151.775 9.3824L152.103 9.75482L152.478 9.43969L152.161 9.06728L151.775 9.3824ZM150.468 10.4939L150.082 10.809L150.41 11.1986L150.796 10.8663L150.468 10.4939ZM150.515 15.7479L150.849 15.3812L150.474 15.0489L150.135 15.4155L150.515 15.7479ZM151.816 16.888L152.196 17.2203L152.53 16.8536L152.155 16.5213L151.816 16.888ZM157.62 19.0939V18.6011V19.0939ZM160.403 18.4006L160.649 18.8303L161 18.6355L160.883 18.2574L160.403 18.4006ZM159.893 16.7792L160.374 16.6359L160.192 16.0458L159.641 16.3494L159.893 16.7792ZM156.543 8.91831H156.039V9.41105H156.543V8.91831ZM160.356 9.90378H160.86V9.41105H160.356V9.90378ZM160.356 7.80106H160.86V7.30833H160.356V7.80106ZM156.543 7.80106H156.039V8.2938H156.543V7.80106ZM156.543 3.7847H157.052V3.23467L156.49 3.29196L156.543 3.7847ZM154.627 3.98523L154.575 3.49249L154.124 3.54406V3.98523H154.627ZM154.627 8.2938H155.137V7.80106H154.627V8.2938ZM153.163 7.30833H152.659V7.80106H153.163V7.30833ZM153.163 9.41105H152.659V9.90378H153.163V9.41105ZM154.627 9.41105H155.137V8.91831H154.627V9.41105ZM132.626 1.48145H130.723V2.46692H132.626V1.48145ZM133.136 1.97418H132.123V18.9506H133.136V1.97418ZM130.805 19.4434H132.626V18.4522H130.805V19.4434ZM130.295 18.9506H131.309V17.1688H130.295V18.9506ZM130.77 17.6672H130.805V16.676H130.77V17.6672ZM126.804 19.5923C128.632 19.5923 130.172 18.7959 131.174 17.4667L130.36 16.8766C129.551 17.9537 128.309 18.6011 126.804 18.6011V19.5923ZM120.677 13.4102C120.677 17.1172 123.36 19.5923 126.804 19.5923V18.6011C123.922 18.6011 121.69 16.5729 121.69 13.4102H120.677ZM126.792 7.09634C123.243 7.09634 120.677 9.84649 120.677 13.4102H121.69C121.69 10.3335 123.858 8.08754 126.792 8.08754V7.09634ZM131.08 9.08447C130.026 7.7896 128.479 7.09634 126.792 7.09634V8.08754C128.186 8.08754 129.44 8.65476 130.289 9.70325L131.08 9.08447ZM130.723 8.90112H130.688V9.88659H130.723V8.90112ZM130.219 9.39386H131.227V1.97418H130.219V9.39386ZM29.1182 18.7673H30.1257V2.63307H29.1182V18.7673ZM34.6067 2.14034H29.6219V3.12581H34.6067V2.14034ZM43.762 10.7288C43.762 8.22504 42.8775 6.07076 41.2608 4.53526C39.65 3.00549 37.3597 2.14034 34.6067 2.14034V3.12581C37.1371 3.12581 39.1638 3.92221 40.5579 5.24571C41.952 6.56922 42.7486 8.45995 42.7486 10.7288H43.762ZM34.677 19.26C37.4417 19.26 39.7203 18.4063 41.3135 16.8823C42.9009 15.364 43.762 13.2212 43.762 10.7288H42.7486C42.7486 12.992 41.9754 14.8655 40.6048 16.1776C39.2341 17.4896 37.225 18.2746 34.677 18.2746V19.26ZM29.6219 19.26H34.677V18.2746H29.6219V19.26ZM34.5129 16.2979H31.6428V17.2834H34.5129V16.2979ZM40.5638 10.4825C40.5638 12.1956 39.9604 13.6451 38.9237 14.6593C37.8869 15.6791 36.3815 16.2979 34.5129 16.2979V17.2834C36.6158 17.2834 38.3906 16.5844 39.6383 15.3582C40.8859 14.1379 41.5713 12.4305 41.5713 10.4825H40.5638ZM34.6008 4.60974C36.4108 4.60974 37.8927 5.2228 38.9237 6.24264C39.9546 7.26822 40.5638 8.72924 40.5638 10.4825H41.5713C41.5713 8.50006 40.8801 6.78122 39.6441 5.54938C38.4023 4.32327 36.6509 3.61854 34.6008 3.61854V4.60974ZM31.6428 4.60974H34.6008V3.61854H31.6428V4.60974ZM32.1465 4.11128H31.139V16.7906H32.1465V4.11128ZM54.5047 7.89846H56.5548V6.91299H54.5047V7.89846ZM51.4646 16.1489L54.9733 7.58907L54.0361 7.22239L50.5274 15.7765L51.4646 16.1489ZM50.9433 16.4583H51.0019V15.4671H50.9433V16.4583ZM46.7024 7.60053L50.4747 16.1604L51.406 15.765L47.6338 7.21093L46.7024 7.60053ZM45.1092 7.89846H47.171V6.91299H45.1092V7.89846ZM50.4688 18.0053L45.5661 7.2052L44.6465 7.60626L49.5492 18.4063L50.4688 18.0053ZM48.4011 23.3967L50.4805 18.3891L49.5433 18.0225L47.4698 23.0243L48.4011 23.3967ZM49.9885 22.7206H47.9384V23.7061H49.9885V22.7206ZM56.0862 7.22239L49.5199 23.0243L50.4513 23.3967L57.0175 7.5948L56.0862 7.22239ZM69.6815 12.207C69.6815 10.5398 69.2481 9.24489 68.4104 8.36255C67.5669 7.47448 66.3837 7.07915 65.0424 7.07915V8.06462C66.1787 8.06462 67.0632 8.39693 67.6724 9.0329C68.2816 9.6746 68.674 10.7002 68.674 12.207H69.6815ZM69.6815 12.207H68.674V18.7673H69.6815V12.207ZM67.2565 19.26H69.1778V18.2746H67.2565V19.26ZM66.7527 18.7673H67.7602V12.717H66.7527V18.7673ZM64.439 9.74909C65.2005 9.74909 65.7394 9.94389 66.1084 10.3392C66.4833 10.7517 66.7527 11.4737 66.7527 12.717H67.7661C67.7661 11.3591 67.4732 10.3564 66.8582 9.68606C66.2373 9.00425 65.3704 8.76362 64.439 8.76362V9.74909ZM61.3287 13.2383C61.3287 12.0867 61.6626 11.2216 62.1956 10.6429C62.7169 10.0757 63.4784 9.74909 64.439 9.74909V8.76362C63.2324 8.76362 62.1839 9.18187 61.4458 9.984C60.7078 10.7804 60.3212 11.9034 60.3212 13.2383H61.3287ZM61.3287 13.2383H60.3212V18.7558H61.3287V13.2383ZM58.9095 19.2486H60.8249V18.2631H58.9095V19.2486ZM58.4058 18.7558H59.4133V7.70366H58.4058V18.7558ZM60.8249 7.21093H58.9095V8.1964H60.8249V7.21093ZM61.3287 7.70366H60.3212V9.61158H61.3287V7.70366ZM60.8601 9.11884H60.8249V10.1043H60.8601V9.11884ZM65.0424 7.07915C63.1797 7.07915 61.5103 7.86409 60.4501 9.32511L61.2701 9.89805C62.1312 8.71778 63.4842 8.06462 65.0424 8.06462V7.07915ZM81.2443 8.03597H83.148L83.1421 7.04477H81.2443V8.03597ZM81.748 7.54324H80.7405V9.1876H81.748V7.54324ZM81.1974 9.68033H81.2443V8.68913H81.1974V9.68033ZM77.2846 7.89846C78.7021 7.89846 79.9556 8.46568 80.8049 9.49699L81.5957 8.87821C80.5414 7.5948 78.9833 6.91299 77.2846 6.91299V7.89846ZM72.2061 13.1524C72.2061 10.1215 74.3617 7.89846 77.2846 7.89846V6.91299C73.7525 6.91299 71.1927 9.62877 71.1927 13.1524H72.2061ZM77.2963 18.2746C74.4261 18.2746 72.2061 16.2692 72.2061 13.1524H71.1927C71.1927 16.8193 73.8755 19.26 77.2963 19.26V18.2746ZM80.8869 16.5672C80.0669 17.6329 78.8251 18.2746 77.2963 18.2746V19.26C79.1356 19.26 80.6819 18.4751 81.6953 17.163L80.8869 16.5672ZM81.3263 16.3724H81.2911V17.3578H81.3263V16.3724ZM81.83 16.8651H80.8225V18.6241H81.83V16.8651ZM83.148 18.1313H81.3263V19.1168H83.148V18.1313ZM82.6383 18.6241H83.6517V7.54324H82.6383V18.6241ZM80.7874 13.33C80.7874 15.427 79.2176 16.7906 77.431 16.7906V17.7761C79.774 17.7761 81.8007 15.977 81.8007 13.33H80.7874ZM77.4486 9.70898C79.3288 9.70898 80.7874 11.2502 80.7874 13.33H81.8007C81.8007 10.8033 79.979 8.72351 77.4486 8.72351V9.70898ZM74.0571 13.33C74.0571 11.0898 75.5566 9.70898 77.4486 9.70898V8.72351C74.9591 8.72351 73.0496 10.5856 73.0496 13.33H74.0571ZM77.431 16.7906C76.3884 16.7906 75.5566 16.4182 74.9826 15.8166C74.4027 15.215 74.0571 14.3499 74.0571 13.33H73.0496C73.0496 14.5676 73.4713 15.6848 74.2445 16.4927C75.0177 17.3063 76.1248 17.7761 77.431 17.7761V16.7906ZM87.3537 18.7673V2.63307H86.3462V18.7673H87.3537ZM88.9059 18.2746H86.8499V19.26H88.9059V18.2746ZM88.4021 18.7673H89.4096V12.6138H88.4021V18.7673ZM92.3736 12.1154H88.9059V13.1066H92.3736V12.1154ZM97.7918 7.63491C97.7918 9.21624 97.2353 10.3106 96.3391 11.021C95.4136 11.7429 94.0664 12.1154 92.3736 12.1154V13.1066C94.2011 13.1066 95.8061 12.6998 96.9659 11.7888C98.1491 10.8606 98.7993 9.46261 98.7993 7.63491H97.7918ZM92.7309 3.12581C94.6053 3.12581 95.8529 3.63573 96.6261 4.40921C97.4052 5.18269 97.7918 6.29421 97.7918 7.63491H98.7993C98.7993 6.11659 98.3658 4.72433 97.3466 3.71594C96.3274 2.70183 94.7927 2.14034 92.7309 2.14034V3.12581ZM86.8499 3.12581H92.7309V2.14034H86.8499V3.12581ZM92.315 10.2074H89.0348V11.1929H92.315V10.2074ZM95.7709 7.37135C95.7709 8.23077 95.5132 8.91831 94.9977 9.39386C94.4823 9.87514 93.6329 10.2074 92.315 10.2074V11.1929C93.7969 11.1929 94.9333 10.8205 95.6948 10.11C96.4621 9.39959 96.7784 8.42558 96.7784 7.37135H95.7709ZM92.6371 4.60974C93.6798 4.60974 94.4588 4.8733 94.9626 5.31447C95.4605 5.75564 95.7709 6.42026 95.7709 7.37135H96.7784C96.7784 6.20254 96.3918 5.24571 95.6362 4.58109C94.8864 3.92793 93.8438 3.61854 92.6371 3.61854V4.60974ZM89.0348 4.60974H92.6371V3.61854H89.0348V4.60974ZM89.5444 4.11128H88.531V10.7002H89.5444V4.11128ZM106.713 9.62304H107.72V7.5948H106.713V9.62304ZM106.748 8.06462C106.929 8.06462 107.047 8.06462 107.129 8.08181L107.299 7.1078C107.111 7.07915 106.906 7.07915 106.748 7.07915V8.06462ZM103.509 9.89805C104.264 8.71778 105.412 8.06462 106.748 8.06462V7.07915C105.032 7.07915 103.573 7.93284 102.654 9.37667L103.509 9.89805ZM103.034 10.1272H103.081V9.14176H103.034V10.1272ZM102.53 9.6345H103.538V7.70366H102.53V9.6345ZM101.154 8.1964H103.034V7.21093H101.154V8.1964ZM101.658 7.70366H100.65V18.7673H101.658V7.70366ZM103.034 18.2746H101.154V19.26H103.034V18.2746ZM102.53 18.7673H103.538V13.4331H102.53V18.7673ZM106.467 9.09593C105.254 9.09593 104.253 9.56001 103.561 10.3621C102.876 11.1471 102.53 12.23 102.53 13.4274H103.538C103.538 12.4133 103.837 11.5711 104.335 10.9981C104.821 10.4309 105.535 10.0871 106.467 10.0871V9.09593ZM107.258 9.1303C106.97 9.10738 106.678 9.09593 106.467 9.09593V10.0871C106.642 10.0871 106.912 10.0929 107.17 10.1158L107.258 9.1303ZM119.5 12.8659H118.492V12.9118H119.5V12.8659ZM119.429 13.7769C119.453 13.6795 119.47 13.5191 119.482 13.3873C119.494 13.2383 119.5 13.0607 119.5 12.906H118.492C118.492 13.0263 118.481 13.1753 118.475 13.3071C118.469 13.3758 118.463 13.4331 118.457 13.479C118.451 13.5363 118.445 13.5477 118.451 13.5363L119.429 13.7769ZM118.744 14.1493H118.937V13.1581H118.744V14.1493ZM110.169 14.1608L118.744 14.1493V13.1581L110.169 13.1696V14.1608ZM113.97 16.5729C112.19 16.5729 110.883 15.427 110.672 13.6108L109.671 13.7196C109.934 16.0171 111.657 17.5584 113.97 17.5584V16.5729ZM116.794 15.2666C116.173 16.0171 115.224 16.5729 113.97 16.5729V17.5584C115.558 17.5584 116.788 16.8479 117.578 15.8854L116.794 15.2666ZM118.844 16.2979L117.514 15.1978L116.864 15.9541L118.188 17.0542L118.844 16.2979ZM113.9 19.26C116.143 19.26 117.848 18.3376 118.914 16.9797L118.117 16.3781C117.239 17.4839 115.833 18.2746 113.9 18.2746V19.26ZM107.72 13.0894C107.72 16.7391 110.38 19.26 113.9 19.26V18.2746C110.942 18.2746 108.728 16.1948 108.728 13.0894H107.72ZM113.683 6.91299C110.303 6.91299 107.72 9.49126 107.72 13.0894H108.728C108.728 9.99545 110.907 7.89846 113.683 7.89846V6.91299ZM119.5 12.8659C119.5 11.17 118.932 9.6746 117.901 8.60319C116.87 7.53178 115.405 6.91299 113.683 6.91299V7.89846C115.148 7.89846 116.337 8.41985 117.168 9.285C117.994 10.1444 118.492 11.382 118.492 12.8659H119.5ZM113.736 8.72351C111.756 8.72351 110.145 9.94389 109.747 11.9206L110.737 12.1096C111.036 10.6142 112.219 9.70898 113.736 9.70898V8.72351ZM117.473 11.932C117.315 11.0038 116.899 10.196 116.249 9.62304C115.593 9.04436 114.732 8.72351 113.736 8.72351V9.70898C114.503 9.70898 115.118 9.95535 115.569 10.3564C116.026 10.7575 116.348 11.3533 116.477 12.0982L117.473 11.932ZM110.245 12.5107H116.975V11.5252H110.245V12.5107ZM127.185 17.7761C129.463 17.7761 131.449 15.9598 131.449 13.33H130.442C130.442 15.4385 128.883 16.7906 127.185 16.7906V17.7761ZM122.868 13.33C122.868 14.5676 123.284 15.6791 124.045 16.487C124.813 17.3005 125.902 17.7761 127.185 17.7761V16.7906C126.171 16.7906 125.351 16.4182 124.789 15.8223C124.221 15.215 123.875 14.3499 123.875 13.33H122.868ZM127.208 8.72351C124.748 8.72351 122.868 10.5913 122.868 13.33H123.875C123.875 11.0783 125.357 9.70898 127.208 9.70898V8.72351ZM131.449 13.33C131.449 10.8148 129.668 8.72351 127.208 8.72351V9.70898C128.995 9.70898 130.442 11.2388 130.442 13.33H131.449ZM135.491 4.12274C135.491 5.11394 136.293 5.92752 137.342 5.92752V4.93632C136.861 4.93632 136.498 4.57537 136.498 4.12274H135.491ZM137.342 2.30076C136.293 2.30076 135.491 3.12008 135.491 4.12274H136.498C136.498 3.65292 136.861 3.29196 137.342 3.29196V2.30076ZM139.193 4.12274C139.193 3.11435 138.361 2.30076 137.342 2.30076V3.29196C137.804 3.29196 138.185 3.65865 138.185 4.12274H139.193ZM137.342 5.92752C138.361 5.92752 139.193 5.11967 139.193 4.12274H138.185C138.185 4.56964 137.804 4.93632 137.342 4.93632V5.92752ZM137.008 7.57188H135.995V18.7673H137.008V7.57188ZM138.349 18.2746H136.498V19.26H138.349V18.2746ZM137.845 18.7673H138.859V7.57188H137.845V18.7673ZM136.498 8.06462H138.355V7.07915H136.498V8.06462ZM141.044 13.1066C141.044 14.8942 141.67 16.4411 142.766 17.5355C143.855 18.6355 145.39 19.26 147.141 19.26V18.2746C145.642 18.2746 144.377 17.7417 143.486 16.8479C142.596 15.9541 142.057 14.665 142.057 13.1066H141.044ZM147.212 6.91299C145.425 6.91299 143.873 7.54324 142.772 8.65476C141.67 9.76054 141.044 11.3132 141.044 13.1066H142.057C142.057 11.5424 142.596 10.2476 143.498 9.34229C144.394 8.43703 145.671 7.89846 147.212 7.89846V6.91299ZM152.161 9.06728C150.937 7.64064 149.028 6.91299 147.212 6.91299V7.89846C148.776 7.89846 150.386 8.52871 151.388 9.70325L152.161 9.06728ZM150.796 10.8663L152.103 9.75482L151.441 9.00998L150.135 10.1215L150.796 10.8663ZM147.3 9.60012C148.5 9.60012 149.473 10.0986 150.082 10.809L150.855 10.1788C150.053 9.24489 148.799 8.60892 147.3 8.60892V9.60012ZM143.961 13.0894C143.961 12.0294 144.312 11.1585 144.892 10.5569C145.466 9.96108 146.292 9.60012 147.3 9.60012V8.60892C146.034 8.60892 144.933 9.07301 144.154 9.88087C143.381 10.6887 142.953 11.8117 142.953 13.0894H143.961ZM147.3 16.5729C146.292 16.5729 145.466 16.2177 144.892 15.6275C144.318 15.0317 143.961 14.1665 143.961 13.0894H142.953C142.953 14.3842 143.381 15.5072 144.16 16.3093C144.945 17.1115 146.04 17.5584 147.3 17.5584V16.5729ZM150.135 15.4155C149.531 16.0744 148.489 16.5729 147.3 16.5729V17.5584C148.77 17.5584 150.088 16.951 150.89 16.0744L150.135 15.4155ZM152.155 16.5213L150.849 15.3812L150.176 16.1145L151.482 17.2604L152.155 16.5213ZM147.141 19.26C149.297 19.26 151.13 18.3834 152.196 17.2203L151.441 16.5614C150.58 17.5068 149.028 18.2746 147.141 18.2746V19.26ZM157.62 18.6011C156.707 18.6011 156.121 18.3318 155.746 17.8907C155.359 17.4323 155.137 16.6989 155.137 15.6275H154.124C154.124 16.8078 154.37 17.8105 154.967 18.5209C155.582 19.2486 156.49 19.5923 157.62 19.5923V18.6011ZM160.151 17.9709C159.583 18.286 158.874 18.6011 157.62 18.6011V19.5923C159.091 19.5923 159.969 19.2085 160.649 18.8303L160.151 17.9709ZM159.407 16.9281L159.917 18.5496L160.883 18.2574L160.374 16.6359L159.407 16.9281ZM157.954 17.8448C158.757 17.8448 159.559 17.5355 160.145 17.2089L159.641 16.3494C159.143 16.6302 158.517 16.8594 157.954 16.8594V17.8448ZM156.039 15.3468C156.039 16.0343 156.115 16.6588 156.414 17.1172C156.754 17.6329 157.292 17.8448 157.954 17.8448V16.8594C157.527 16.8594 157.363 16.7391 157.269 16.5901C157.134 16.3838 157.052 16.0057 157.052 15.3468H156.039ZM156.039 15.3468H157.046V9.41105H156.039V15.3468ZM160.356 8.91831H156.543V9.90378H160.356V8.91831ZM159.852 9.41105H160.86V7.80106H159.852V9.41105ZM156.543 8.2938H160.356V7.30833H156.543V8.2938ZM156.039 7.80106H157.046V3.7847H156.039V7.80106ZM154.68 4.47796L156.601 4.27743L156.49 3.29196L154.575 3.49249L154.68 4.47796ZM155.137 3.98523H154.124V7.80106H155.137V3.98523ZM153.163 8.2938H154.633V7.30833H153.163V8.2938ZM153.667 7.80106H152.659V9.41105H153.667V7.80106ZM154.627 8.91831H153.163V9.90378H154.627V8.91831ZM155.137 9.41105H154.124V15.6275H155.137V9.41105Z" fill="white"/>
<path fill-rule="evenodd" clip-rule="evenodd" d="M1.06563 17.1856L0.8489 16.8991C0.772753 16.8017 0.737607 16.6986 0.737607 16.5783L0.702462 16.3605L0.591169 14.5271L0.263148 9.38775C0.0932799 7.35379 0.0112742 6.23654 0.0112742 6.04747V6.00736C-0.018013 5.67505 0.0112727 5.46879 0.0815645 5.40004L0.11671 5.32555C0.187 5.20523 0.25729 5.11929 0.321723 5.05627C0.380297 4.99897 0.520878 4.89584 0.737607 4.7526L3.33249 3.17127C5.42363 1.92224 6.51898 1.27481 6.61856 1.22897C6.71814 1.18314 6.77671 1.14303 6.80014 1.12011H7.02273L7.20431 1.08574L7.56748 1.12011L7.86035 1.01125L8.04194 0.908123L8.22352 0.764886C8.44611 0.593001 8.60426 0.484141 8.69798 0.438305C8.89714 0.317985 9.2603 0.197667 9.79334 0.077348C10.1096 0.00859422 10.4552 -0.0143237 10.8184 0.00859422H10.8535C11.1699 0.00859422 11.4452 0.0257834 11.6736 0.0601596C11.9079 0.0945357 12.1481 0.151831 12.3882 0.220585L12.4644 0.260691C12.5112 0.260691 12.6811 0.317985 12.974 0.438305C12.9974 0.461222 13.056 0.512789 13.1556 0.581542L13.4484 0.724779L13.7765 1.01125L13.9229 1.05136C14.0459 1.07428 14.1279 1.07428 14.1806 1.05136C14.3271 1.05136 14.4969 1.06282 14.6902 1.08574L15.0534 1.22897L15.4224 1.40659L21.0105 4.7526L21.2624 4.93022C21.4322 5.05054 21.5552 5.20523 21.6314 5.40004C21.7017 5.58911 21.7251 5.89277 21.7017 6.29384L21.2975 11.2212L20.8992 16.7215C20.8758 16.7902 20.8113 16.8991 20.7176 17.0423C20.6649 17.1397 20.5185 17.2601 20.2783 17.4033L12.2769 24.3761C12.1071 24.5193 11.9138 24.6625 11.697 24.8058L11.6209 24.8402C11.4042 24.9605 11.1523 25.0235 10.8711 25.0235C10.5958 25.0235 10.3322 24.9605 10.0862 24.8402C9.91635 24.7485 9.69962 24.5938 9.43017 24.3761L7.12816 22.3249L1.06563 17.1856ZM10.7833 4.0708C11.2694 4.0708 11.7205 4.0135 12.1363 3.90464C12.5464 3.79578 12.8627 3.65827 13.0853 3.49212C13.3781 3.28013 13.5773 3.07387 13.6827 2.87906C13.794 2.68999 13.8467 2.49519 13.8467 2.28893C13.8467 2.08267 13.8116 1.92224 13.7413 1.80192L13.6652 1.69879L13.63 1.58993C13.6066 1.5441 13.5304 1.46961 13.4133 1.37221L13.302 1.26335C13.1321 1.12011 12.8744 0.965417 12.5347 0.799263C11.9723 0.558625 11.4159 0.438305 10.8535 0.438305C10.1506 0.438305 9.46532 0.615919 8.80927 0.976877C8.7097 1.02271 8.56912 1.12011 8.36996 1.26335L8.29967 1.33783C8.1298 1.48107 8.00679 1.65869 7.93064 1.87641C7.88378 2.01964 7.86035 2.15142 7.86035 2.27174C7.86035 2.6327 7.97165 2.91917 8.18838 3.13689L8.29967 3.24002C8.36996 3.3145 8.43439 3.36034 8.48125 3.38899C8.65112 3.50358 8.84442 3.6239 9.067 3.74422C9.43017 3.91037 9.76991 4.00777 10.0862 4.03069C10.2327 4.05934 10.467 4.0708 10.7833 4.0708ZM8.79756 2.2832C8.79756 2.91917 9.7289 3.42909 10.8711 3.42909C12.0192 3.42909 12.9505 2.91917 12.9505 2.2832C12.9505 1.65295 12.0192 1.14303 10.8711 1.14303C9.7289 1.14303 8.79756 1.65295 8.79756 2.2832Z" fill="white"/>
<path d="M93.6912 28.0828V29.8934H93.0762V25.2754H94.7983C95.3137 25.2754 95.7121 25.4072 95.9991 25.6593C96.292 25.9228 96.4384 26.2609 96.4384 26.6848C96.4384 27.1317 96.2978 27.4812 96.0108 27.7219C95.7296 27.9625 95.3196 28.0828 94.7924 28.0828H93.6912ZM93.6912 27.5901H94.7983C95.1322 27.5901 95.384 27.5099 95.5598 27.3609C95.7355 27.2062 95.8234 26.9828 95.8234 26.6906C95.8234 26.4213 95.7355 26.1978 95.5598 26.0317C95.384 25.8713 95.138 25.7853 94.8334 25.7739H93.6912V27.5901Z" fill="white"/>
<path d="M96.9307 28.1459C96.9307 27.8079 96.9951 27.51 97.1298 27.2407C97.2645 26.9714 97.452 26.7651 97.6863 26.6162C97.9264 26.4729 98.2017 26.3984 98.5063 26.3984C98.9808 26.3984 99.3615 26.5589 99.6544 26.8854C99.9473 27.2063 100.094 27.636 100.094 28.1746V28.2147C100.094 28.547 100.029 28.8507 99.8946 29.1142C99.7657 29.3778 99.5841 29.584 99.3381 29.733C99.0979 29.882 98.8226 29.9564 98.5122 29.9564C98.0436 29.9564 97.657 29.796 97.3641 29.4694C97.0771 29.1486 96.9307 28.7189 96.9307 28.186V28.1459ZM97.5281 28.2147C97.5281 28.5986 97.616 28.9022 97.7917 29.1314C97.9733 29.3606 98.2135 29.4752 98.5122 29.4752C98.8168 29.4752 99.0511 29.3606 99.2327 29.1257C99.4084 28.8965 99.4963 28.5642 99.4963 28.1459C99.4963 27.7678 99.4084 27.4641 99.2268 27.2292C99.0452 26.9943 98.8051 26.8797 98.5063 26.8797C98.2135 26.8797 97.9733 26.9943 97.7976 27.2235C97.616 27.4584 97.5281 27.785 97.5281 28.2147Z" fill="white"/>
<path d="M103.913 29.0855L104.581 26.4614H105.178L104.165 29.8934H103.685L102.835 27.2922L102.015 29.8934H101.535L100.527 26.4614H101.119L101.798 29.0282L102.613 26.4614H103.087L103.913 29.0855Z" fill="white"/>
<path d="M107.222 29.9564C106.754 29.9564 106.367 29.8017 106.074 29.4981C105.775 29.1944 105.629 28.7819 105.629 28.272V28.1631C105.629 27.8251 105.693 27.5214 105.828 27.2521C105.957 26.9886 106.144 26.7766 106.379 26.6276C106.613 26.4729 106.871 26.3984 107.152 26.3984C107.603 26.3984 107.954 26.5474 108.2 26.8396C108.452 27.1318 108.581 27.5558 108.581 28.1001V28.3465H106.226C106.232 28.6845 106.332 28.9595 106.525 29.1658C106.718 29.372 106.959 29.4752 107.251 29.4752C107.462 29.4752 107.644 29.4351 107.79 29.3491C107.931 29.2632 108.06 29.1543 108.171 29.0168L108.534 29.2918C108.241 29.733 107.802 29.9564 107.222 29.9564ZM107.152 26.8797C106.912 26.8797 106.707 26.9657 106.543 27.1375C106.385 27.3094 106.285 27.5501 106.244 27.8652H107.984V27.8193C107.966 27.5214 107.884 27.2922 107.738 27.1261C107.597 26.9599 107.398 26.8797 107.152 26.8797Z" fill="white"/>
<path d="M110.948 26.9886C110.86 26.9714 110.76 26.9657 110.655 26.9657C110.262 26.9657 109.999 27.1318 109.864 27.4584V29.8934H109.267V26.4615H109.846L109.858 26.8568C110.052 26.5531 110.327 26.3984 110.684 26.3984C110.801 26.3984 110.889 26.4156 110.948 26.4443V26.9886Z" fill="white"/>
<path d="M112.874 29.9564C112.4 29.9564 112.019 29.8017 111.726 29.4981C111.428 29.1944 111.281 28.7819 111.281 28.272V28.1631C111.281 27.8251 111.346 27.5214 111.48 27.2521C111.609 26.9886 111.797 26.7766 112.031 26.6276C112.265 26.4729 112.523 26.3984 112.798 26.3984C113.249 26.3984 113.601 26.5474 113.853 26.8396C114.105 27.1318 114.228 27.5558 114.228 28.1001V28.3465H111.873C111.885 28.6845 111.984 28.9595 112.172 29.1658C112.365 29.372 112.611 29.4752 112.904 29.4752C113.115 29.4752 113.296 29.4351 113.437 29.3491C113.583 29.2632 113.712 29.1543 113.823 29.0168L114.187 29.2918C113.894 29.733 113.454 29.9564 112.874 29.9564ZM112.798 26.8797C112.558 26.8797 112.359 26.9657 112.195 27.1375C112.037 27.3094 111.931 27.5501 111.896 27.8652H113.636V27.8193C113.618 27.5214 113.536 27.2922 113.39 27.1261C113.244 26.9599 113.05 26.8797 112.798 26.8797Z" fill="white"/>
<path d="M114.772 28.146C114.772 27.6246 114.901 27.2006 115.153 26.8798C115.405 26.5589 115.739 26.3985 116.143 26.3985C116.553 26.3985 116.875 26.536 117.11 26.811V25.0234H117.707V29.8935H117.162L117.133 29.5268C116.893 29.8133 116.565 29.9565 116.137 29.9565C115.739 29.9565 115.411 29.7904 115.153 29.4695C114.901 29.1429 114.772 28.719 114.772 28.1918V28.146ZM115.37 28.2148C115.37 28.6044 115.452 28.908 115.61 29.1257C115.774 29.3492 116.003 29.4581 116.29 29.4581C116.664 29.4581 116.94 29.2919 117.11 28.9596V27.384C116.934 27.0574 116.659 26.897 116.295 26.897C116.003 26.897 115.774 27.0058 115.61 27.2293C115.452 27.4527 115.37 27.7793 115.37 28.2148Z" fill="white"/>
<path d="M123.202 28.2148C123.202 28.7361 123.085 29.1601 122.839 29.481C122.593 29.7961 122.265 29.9565 121.855 29.9565C121.416 29.9565 121.076 29.8018 120.836 29.4982L120.806 29.8935H120.262V25.0234H120.859V26.8397C121.099 26.5475 121.427 26.3985 121.849 26.3985C122.271 26.3985 122.599 26.5589 122.839 26.8683C123.085 27.1835 123.202 27.6189 123.202 28.1632V28.2148ZM122.611 28.1517C122.611 27.7507 122.534 27.4413 122.376 27.2236C122.218 27.0058 121.996 26.897 121.703 26.897C121.31 26.897 121.029 27.0746 120.859 27.4355V28.9195C121.041 29.2804 121.322 29.4581 121.709 29.4581C121.99 29.4581 122.212 29.3492 122.37 29.1315C122.529 28.9138 122.611 28.5872 122.611 28.1517Z" fill="white"/>
<path d="M125.052 29.034L125.861 26.4614H126.499L125.099 30.4205C124.882 30.9934 124.543 31.2799 124.068 31.2799L123.957 31.2685L123.734 31.2284V30.7528L123.898 30.7643C124.097 30.7643 124.256 30.7242 124.367 30.6439C124.478 30.5637 124.572 30.4148 124.642 30.2028L124.777 29.8533L123.535 26.4614H124.185L125.052 29.034Z" fill="white"/>
<path d="M128.754 29.8934V25.2754H130.072C130.482 25.2754 130.839 25.3671 131.155 25.5447C131.466 25.7166 131.706 25.9744 131.876 26.301C132.046 26.6275 132.134 27.0057 132.134 27.4297V27.7219C132.134 28.1573 132.052 28.5412 131.876 28.8678C131.712 29.1944 131.466 29.4465 131.15 29.6241C130.833 29.796 130.47 29.8876 130.048 29.8934H128.754ZM129.369 25.7739V29.3949H130.019C130.494 29.3949 130.863 29.2459 131.126 28.9537C131.39 28.6672 131.525 28.249 131.525 27.7104V27.4411C131.525 26.9198 131.402 26.5072 131.15 26.2208C130.904 25.9286 130.546 25.7796 130.089 25.7739H129.369Z" fill="white"/>
<path d="M134.115 29.034L134.923 26.4614H135.562L134.162 30.4205C133.945 30.9934 133.605 31.2799 133.131 31.2799L133.019 31.2685L132.797 31.2284V30.7528L132.961 30.7643C133.16 30.7643 133.318 30.7242 133.429 30.6439C133.541 30.5637 133.634 30.4148 133.705 30.2028L133.839 29.8533L132.598 26.4614H133.248L134.115 29.034Z" fill="white"/>
<path d="M136.65 26.4615L136.674 26.8912C136.937 26.5646 137.283 26.3984 137.71 26.3984C138.448 26.3984 138.817 26.8052 138.823 27.6245V29.8934H138.232V27.6245C138.226 27.3782 138.167 27.1948 138.056 27.0745C137.945 26.9542 137.769 26.8969 137.535 26.8969C137.341 26.8969 137.172 26.9485 137.025 27.0459C136.879 27.149 136.767 27.2808 136.685 27.4469V29.8934H136.088V26.4615H136.65Z" fill="white"/>
<path d="M141.864 29.8934C141.828 29.8247 141.805 29.7043 141.782 29.5325C141.506 29.8132 141.172 29.9564 140.792 29.9564C140.446 29.9564 140.171 29.859 139.948 29.67C139.731 29.4752 139.62 29.2345 139.62 28.9423C139.62 28.5871 139.755 28.3064 140.03 28.1116C140.305 27.911 140.692 27.8136 141.19 27.8136H141.77V27.5443C141.77 27.3381 141.711 27.1776 141.588 27.0573C141.459 26.9313 141.278 26.874 141.038 26.874C140.821 26.874 140.645 26.9255 140.505 27.0287C140.358 27.1375 140.288 27.2636 140.288 27.4126H139.69C139.69 27.2407 139.749 27.0745 139.872 26.9198C139.995 26.7594 140.165 26.6333 140.376 26.5359C140.587 26.4443 140.821 26.3984 141.073 26.3984C141.471 26.3984 141.787 26.4958 142.01 26.6964C142.238 26.8912 142.356 27.1662 142.367 27.51V29.0913C142.367 29.4064 142.408 29.6528 142.484 29.8419V29.8934H141.864ZM140.879 29.4465C141.067 29.4465 141.243 29.4007 141.407 29.3033C141.577 29.2059 141.694 29.0856 141.77 28.9309V28.2261H141.307C140.581 28.2261 140.212 28.4381 140.212 28.8564C140.212 29.0397 140.276 29.1887 140.399 29.2918C140.522 29.395 140.686 29.4465 140.879 29.4465Z" fill="white"/>
<path d="M143.855 26.4615L143.873 26.8396C144.125 26.5474 144.47 26.3984 144.904 26.3984C145.39 26.3984 145.718 26.5818 145.894 26.9485C146.011 26.7823 146.157 26.6505 146.345 26.5531C146.532 26.45 146.749 26.3984 147.001 26.3984C147.762 26.3984 148.149 26.7938 148.166 27.5959V29.8934H147.569V27.6303C147.569 27.3839 147.516 27.2006 147.399 27.0802C147.288 26.9599 147.095 26.8969 146.831 26.8969C146.608 26.8969 146.427 26.9599 146.28 27.0917C146.134 27.2235 146.052 27.3954 146.023 27.6188V29.8934H145.431V27.6417C145.431 27.1433 145.179 26.8969 144.687 26.8969C144.3 26.8969 144.031 27.0631 143.885 27.3896V29.8934H143.293V26.4615H143.855Z" fill="white"/>
<path d="M148.904 28.1459C148.904 27.8079 148.975 27.51 149.103 27.2407C149.238 26.9714 149.426 26.7651 149.666 26.6162C149.906 26.4729 150.175 26.3984 150.48 26.3984C150.954 26.3984 151.341 26.5589 151.628 26.8854C151.921 27.2063 152.067 27.636 152.067 28.1746V28.2147C152.067 28.547 152.003 28.8507 151.874 29.1142C151.745 29.3778 151.558 29.584 151.318 29.733C151.077 29.882 150.802 29.9564 150.492 29.9564C150.017 29.9564 149.636 29.796 149.344 29.4694C149.051 29.1486 148.904 28.7189 148.904 28.186V28.1459ZM149.502 28.2147C149.502 28.5986 149.595 28.9022 149.771 29.1314C149.947 29.3606 150.187 29.4752 150.492 29.4752C150.79 29.4752 151.031 29.3606 151.206 29.1257C151.388 28.8965 151.476 28.5642 151.476 28.1459C151.476 27.7678 151.382 27.4641 151.2 27.2292C151.019 26.9943 150.785 26.8797 150.48 26.8797C150.187 26.8797 149.953 26.9943 149.771 27.2235C149.595 27.4584 149.502 27.785 149.502 28.2147Z" fill="white"/>
<path d="M153.907 27.7162L154.68 26.4614H155.371L154.235 28.1574L155.406 29.8934H154.721L153.918 28.61L153.116 29.8934H152.425L153.596 28.1574L152.46 26.4614H153.145L153.907 27.7162Z" fill="white"/>
<path d="M155.845 27.5792C155.845 27.1552 155.944 26.7599 156.143 26.3932C156.343 26.0265 156.618 25.74 156.975 25.528C157.333 25.316 157.713 25.2129 158.123 25.2129C158.533 25.2129 158.914 25.316 159.271 25.528C159.623 25.74 159.898 26.0265 160.097 26.3932C160.296 26.7599 160.402 27.1552 160.402 27.5792C160.402 27.9974 160.302 28.387 160.109 28.7537C159.916 29.1147 159.646 29.4069 159.289 29.6303C158.938 29.848 158.545 29.9569 158.123 29.9569C157.702 29.9569 157.315 29.848 156.958 29.636C156.606 29.4126 156.331 29.1204 156.138 28.7594C155.938 28.3928 155.845 28.0031 155.845 27.5792ZM156.214 27.5792C156.214 27.9459 156.296 28.2839 156.471 28.5933C156.641 28.9027 156.876 29.1433 157.169 29.3209C157.461 29.4928 157.784 29.5845 158.123 29.5845C158.469 29.5845 158.791 29.4928 159.084 29.3152C159.377 29.1376 159.611 28.8912 159.775 28.5876C159.945 28.2782 160.033 27.9459 160.033 27.5792C160.033 27.2182 159.945 26.8859 159.775 26.5822C159.611 26.2786 159.377 26.0379 159.084 25.8603C158.791 25.6827 158.469 25.5968 158.123 25.5968C157.784 25.5968 157.461 25.6827 157.169 25.8546C156.87 26.0322 156.641 26.2728 156.466 26.5822C156.296 26.8859 156.214 27.2239 156.214 27.5792ZM157.655 27.8198V28.8912H157.198V26.1984H158.088C158.41 26.1984 158.668 26.2671 158.844 26.4104C159.025 26.5479 159.119 26.7484 159.119 27.0119C159.119 27.2698 158.984 27.4703 158.709 27.6078C158.967 27.7109 159.102 27.9287 159.102 28.2552V28.4443C159.102 28.6277 159.119 28.7594 159.16 28.8397V28.8912H158.691C158.662 28.8167 158.645 28.6792 158.645 28.4844C158.645 28.2896 158.645 28.175 158.639 28.1349C158.604 27.9344 158.463 27.8255 158.217 27.8198H157.655ZM157.655 27.413H158.153C158.305 27.4073 158.428 27.3729 158.527 27.3042C158.621 27.2297 158.668 27.138 158.668 27.0291C158.668 26.8744 158.621 26.7656 158.539 26.7026C158.457 26.6338 158.311 26.5994 158.094 26.5994H157.655V27.413Z" fill="white"/>
</svg>
