<svg width="173" height="66" viewBox="0 0 173 66" fill="none" xmlns="http://www.w3.org/2000/svg">
<path fill-rule="evenodd" clip-rule="evenodd" d="M51.272 38.9419H42.953C42.8338 38.9419 42.8018 39.024 42.8018 39.0856V58.1617C42.8018 58.1905 42.8018 58.2931 42.9484 58.2931H51.272C58.8209 58.2931 62.1485 53.3527 62.0568 48.4532C61.9651 43.6647 58.6651 38.9419 51.272 38.9419ZM46.8764 42.3957H51.272C55.9562 42.3957 57.9271 45.406 58.0188 48.4245C58.1105 51.5826 56.1717 54.79 51.272 54.79H46.8627C46.8444 54.79 46.8352 54.79 46.8352 54.7613V42.4286C46.8352 42.4039 46.8489 42.3957 46.8764 42.3957Z" fill="#FCFCFC"/>
<path fill-rule="evenodd" clip-rule="evenodd" d="M116.366 58.1703C116.366 58.2401 116.426 58.2935 116.504 58.2935H120.005C120.079 58.2935 120.143 58.2401 120.143 58.1703V50.0963C120.184 49.928 120.239 49.7637 120.313 49.6076C120.478 49.2503 120.72 48.93 121.023 48.6631C121.321 48.392 121.678 48.1785 122.077 48.0265C122.458 47.8869 122.875 47.8088 123.31 47.8088C123.75 47.8088 124.167 47.8869 124.548 48.0265C124.946 48.1785 125.304 48.392 125.602 48.6631C126.601 49.5583 126.491 50.2236 126.491 51.3489V57.7103H126.537V58.1744C126.537 58.2401 126.596 58.2935 126.67 58.2935H130.071C130.144 58.2935 130.204 58.2401 130.204 58.1744C130.204 53.8499 130.204 56.7288 130.204 52.4044C130.204 52.3961 130.204 52.3838 130.199 52.3756V51.3941C130.199 50.2524 130.075 49.5707 131.088 48.6631C131.386 48.392 131.748 48.1785 132.142 48.0265C132.523 47.8869 132.94 47.8088 133.375 47.8088C133.815 47.8088 134.232 47.8869 134.613 48.0265C135.007 48.1785 135.369 48.392 135.667 48.6631C135.97 48.93 136.213 49.2503 136.373 49.6076C136.533 49.9485 136.62 50.3222 136.62 50.7165V53.6816C136.616 55.9198 136.607 54.466 136.607 58.1744C136.607 58.2401 136.666 58.2935 136.74 58.2935H140.141C140.214 58.2935 140.273 58.2401 140.273 58.1744V52.4044C140.273 52.392 140.269 52.3797 140.264 52.3674V50.7165C140.264 49.8828 140.081 49.0861 139.742 48.3592C139.393 47.6035 138.88 46.9259 138.243 46.355C137.61 45.7842 136.85 45.3242 136.006 45.0121C135.195 44.7082 134.306 44.5439 133.375 44.5439C132.45 44.5439 131.56 44.7082 130.749 45.0121C129.906 45.3242 129.149 45.7842 128.512 46.355C128.48 46.3838 128.448 46.4125 128.416 46.4454C128.389 46.4659 128.366 46.4865 128.343 46.5111C128.324 46.4865 128.302 46.4659 128.274 46.4413C128.242 46.4125 128.21 46.3838 128.178 46.355C127.545 45.7842 126.784 45.3242 125.941 45.0121C125.13 44.7082 124.241 44.5439 123.31 44.5439C122.668 44.5439 122.045 44.622 121.449 44.7739C120.78 44.9423 120.62 45.0819 120.047 45.3489L119.96 44.8109C119.96 44.7452 119.895 44.6877 119.822 44.6877H116.522C116.444 44.6877 116.385 44.7452 116.385 44.8109C116.385 49.2668 116.366 53.7185 116.366 58.1703Z" fill="#FCFCFC"/>
<path fill-rule="evenodd" clip-rule="evenodd" d="M73.0518 58.7411C71.6355 61.7473 69.9121 64.8685 65.425 65.3818C65.292 65.3941 65.2462 65.2915 65.2462 65.2586L64.8841 62.2319C64.8795 62.1908 64.8887 62.0923 65.0124 62.0758C67.1071 61.8007 68.2942 60.1128 69.2338 58.2647L63.2524 44.8683C63.2157 44.7451 63.3074 44.6835 63.4037 44.6835H67.4279C67.4967 44.6835 67.5471 44.7082 67.5792 44.778L69.8571 50.5645L71.2001 54.1374L73.0151 50.3468L75.5773 44.741C75.614 44.6712 75.6598 44.6548 75.724 44.6548H79.5465C79.652 44.6548 79.7253 44.741 79.6886 44.8355L73.0518 58.7411Z" fill="#FCFCFC"/>
<path fill-rule="evenodd" clip-rule="evenodd" d="M42.7471 34.2767C50.6352 30.5888 69.244 20.8023 69.244 13.3033C69.244 9.06099 64.2114 6.12052 56.5754 4.1164C56.5433 4.10819 56.5204 4.13283 56.5479 4.14926C69.7299 8.8269 67.8965 16.3259 58.7846 23.8865C61.4797 21.1144 63.0931 18.1822 63.2535 15.0898C63.6431 7.49219 54.0912 3.6318 43.0176 1.74268C42.9992 1.74268 42.9901 1.7591 43.0084 1.76321C52.3861 3.90696 60.0084 8.07536 59.6738 15.3239C59.3346 22.5682 52.4549 28.8024 42.7334 34.248C42.7151 34.2603 42.7242 34.2849 42.7471 34.2767Z" fill="#FCFCFC"/>
<path fill-rule="evenodd" clip-rule="evenodd" d="M172.815 44.6836H168.736C168.685 44.6836 168.612 44.7206 168.575 44.7657L165.289 48.8479L161.998 44.7657C161.961 44.7206 161.893 44.6836 161.842 44.6836H157.763C157.713 44.6836 157.699 44.7206 157.736 44.7657L163.158 51.4886L157.736 58.2114C157.699 58.2566 157.713 58.2935 157.763 58.2935H161.842C161.893 58.2935 161.961 58.2566 161.998 58.2114L165.289 54.1333L168.575 58.2114C168.612 58.2566 168.685 58.2935 168.736 58.2935H172.815C172.866 58.2935 172.875 58.2566 172.838 58.2114L167.42 51.4886L172.838 44.7657C172.875 44.7206 172.866 44.6836 172.815 44.6836Z" fill="#FCFCFC"/>
<path fill-rule="evenodd" clip-rule="evenodd" d="M110.301 45.6443L110.393 44.8106C110.402 44.7449 110.453 44.6915 110.531 44.6915H113.734C113.812 44.6915 113.872 44.7449 113.872 44.8106V58.1701C113.872 58.2399 113.812 58.2933 113.734 58.2933H110.531C110.453 58.2933 110.402 58.2399 110.393 58.1701L110.301 57.2994C109.004 58.1043 107.345 58.6547 105.649 58.6547C103.435 58.6547 101.432 57.8497 99.9841 56.552C98.5312 55.2501 97.6328 53.4554 97.6328 51.4719C97.6328 49.4883 98.5312 47.6936 99.9841 46.3917C101.432 45.094 103.435 44.2891 105.649 44.2891C107.345 44.2891 109.004 44.8394 110.301 45.6443ZM108.803 48.6464C108.001 47.9236 106.882 47.4759 105.649 47.4759C104.421 47.4759 103.303 47.9236 102.496 48.6464C101.689 49.3692 101.19 50.3671 101.19 51.4719C101.19 52.5766 101.689 53.5745 102.496 54.2973C103.303 55.0201 104.421 55.4678 105.649 55.4678C106.882 55.4678 108.001 55.0201 108.803 54.2973C109.614 53.5745 110.114 52.5766 110.114 51.4719C110.114 50.3671 109.614 49.3692 108.803 48.6464Z" fill="#FCFCFC"/>
<path fill-rule="evenodd" clip-rule="evenodd" d="M150.009 44.2891C152.232 44.2891 154.244 45.094 155.701 46.4C157.154 47.7018 158.057 49.5047 158.057 51.4965C158.057 53.4842 157.154 55.2871 155.701 56.593C154.244 57.899 152.232 58.7039 150.009 58.7039C147.79 58.7039 145.778 57.899 144.321 56.593C142.868 55.2871 141.965 53.4842 141.965 51.4965C141.965 49.5047 142.868 47.7018 144.321 46.4C145.778 45.094 147.79 44.2891 150.009 44.2891ZM153.176 48.6587C152.365 47.9359 151.246 47.4883 150.009 47.4883C148.776 47.4883 147.657 47.9359 146.846 48.6587C146.035 49.3856 145.535 50.3877 145.535 51.4965C145.535 52.6053 146.035 53.6074 146.846 54.3302C147.657 55.0571 148.776 55.5047 150.009 55.5047C151.246 55.5047 152.365 55.0571 153.176 54.3302C153.987 53.6074 154.487 52.6053 154.487 51.4965C154.487 50.3877 153.987 49.3856 153.176 48.6587Z" fill="#FCFCFC"/>
<path fill-rule="evenodd" clip-rule="evenodd" d="M88.5542 44.4658C90.6076 44.4658 92.4777 45.2174 93.8298 46.4289C95.1865 47.6445 96.0252 49.3159 96.0252 51.1599V58.1743C96.0252 58.24 95.9657 58.2934 95.8923 58.2934H92.551C92.4822 58.2934 92.4227 58.24 92.4227 58.1743V51.1599C92.4227 50.2071 91.9826 49.3406 91.2814 48.7123C90.5801 48.0839 89.613 47.6938 88.5542 47.6938C87.4909 47.6938 86.5238 48.0305 85.8225 48.6589C85.1808 49.2338 84.7133 50.047 84.6354 50.9094V58.1702C84.6354 58.24 84.5758 58.2934 84.4979 58.2934H81.0145C80.9411 58.2934 80.877 58.24 80.877 58.1702V44.8108C80.877 44.7451 80.9411 44.6876 81.0145 44.6876H84.3145C84.3879 44.6876 84.452 44.7451 84.452 44.8108L84.5437 45.5459C85.685 44.9135 87.1196 44.4658 88.5542 44.4658Z" fill="#FCFCFC"/>
<path fill-rule="evenodd" clip-rule="evenodd" d="M0.0383207 49.3283C20.4576 44.8847 55.2643 30.9668 55.9609 15.5211C56.6301 0.519006 24.3352 0.157609 13.0782 0.235639C12.9774 0.235639 12.982 0.342416 13.0599 0.342416C20.3613 0.958435 37.0267 4.19459 36.5409 17.0817C36.0275 30.5602 17.13 41.5911 0.0199869 49.2954C-0.0166806 49.3037 0.00165316 49.3365 0.0383207 49.3283Z" fill="#FCFCFC"/>
</svg>
