<svg width="32" height="32" viewBox="0 0 32 32" fill="none" xmlns="http://www.w3.org/2000/svg">
  <path fill-rule="evenodd" clip-rule="evenodd" d="M1.3362 21.9806L1.06211 21.6128C0.970741 21.4903 0.925059 21.3524 0.925059 21.1994L0.879377 20.9235L0.74233 18.5795L0.331194 12.0072C0.118011 9.40274 0.0114206 7.97798 0.0114206 7.73286V7.68689C-0.0190341 7.25794 0.0114201 6.9975 0.102784 6.90556L0.148466 6.81364C0.239832 6.66044 0.323579 6.54554 0.399716 6.46895C0.475855 6.39234 0.650966 6.26213 0.925059 6.07827L4.16848 4.05602C6.78758 2.46272 8.15802 1.63543 8.27985 1.57415C8.40166 1.51287 8.47781 1.46691 8.50825 1.43627H8.78234L9.01076 1.39031L9.46758 1.43627L9.83303 1.29839L10.0614 1.1605L10.2899 0.976661C10.5639 0.762177 10.7619 0.624297 10.8837 0.563017C11.1273 0.409815 11.5842 0.256615 12.2542 0.103411C12.6501 0.0114898 13.0764 -0.0191502 13.5333 0.0114903H13.5789C13.9749 0.0114903 14.3175 0.0344703 14.6068 0.080431C14.8961 0.126392 15.193 0.195332 15.4976 0.287253L15.5889 0.333215C15.6499 0.333215 15.863 0.409815 16.2285 0.563017C16.2589 0.593657 16.3351 0.654937 16.4569 0.746859L16.8224 0.930701L17.2335 1.29839L17.4162 1.34435C17.5685 1.37499 17.6751 1.37499 17.736 1.34435C17.9187 1.34435 18.1319 1.35967 18.3756 1.39031L18.8324 1.57415L19.2892 1.80395L26.2785 6.07827L26.5983 6.30808C26.8114 6.46129 26.9638 6.66044 27.0552 6.90556C27.1465 7.1507 27.1768 7.53369 27.1465 8.05457L26.644 14.3512L26.1415 21.3832C26.1109 21.475 26.0349 21.6128 25.913 21.7968C25.8522 21.9194 25.6695 22.0726 25.3648 22.2564L15.3605 31.1726C15.1474 31.3566 14.9037 31.5404 14.6296 31.7242L14.5383 31.7701C14.2642 31.9234 13.952 32 13.6018 32C13.2516 32 12.9242 31.9234 12.6196 31.7701C12.4064 31.6476 12.1324 31.4484 11.7973 31.1726L8.91939 28.5531L1.3362 21.9806ZM13.4876 5.20503C14.0967 5.20503 14.6601 5.13609 15.1778 4.99821C15.6955 4.86032 16.0914 4.68415 16.3655 4.46966C16.731 4.1939 16.9823 3.93345 17.1193 3.68834C17.2563 3.4432 17.3249 3.19042 17.3249 2.92998C17.3249 2.66954 17.2792 2.46272 17.1878 2.30952L17.0965 2.17164L17.0508 2.03375C17.0203 1.97247 16.9289 1.88055 16.7767 1.75799L16.6396 1.62011C16.4265 1.43627 16.1067 1.23711 15.6803 1.02262C14.9799 0.716217 14.2794 0.563017 13.5789 0.563017C12.6958 0.563017 11.843 0.792817 11.0208 1.25242C10.8989 1.31371 10.7162 1.43627 10.4726 1.62011L10.3812 1.71203C10.168 1.89587 10.0158 2.12566 9.9244 2.40143C9.86349 2.58528 9.83303 2.75379 9.83303 2.90701C9.83303 3.36661 9.97008 3.7343 10.2442 4.01006L10.3812 4.14794C10.4726 4.23985 10.5487 4.30114 10.6096 4.33177C10.8228 4.48499 11.0664 4.63819 11.3405 4.79139C11.7973 5.00587 12.2237 5.12842 12.6196 5.15907C12.8024 5.18971 13.0917 5.20503 13.4876 5.20503ZM11.0052 2.92476C11.0052 3.7324 12.1673 4.38714 13.6008 4.38714C15.0342 4.38714 16.1963 3.7324 16.1963 2.92476C16.1963 2.11712 15.0342 1.46238 13.6008 1.46238C12.1673 1.46238 11.0052 2.11712 11.0052 2.92476Z" fill="#2E3552"></path>
</svg>