<svg width="24" height="25" viewBox="0 0 24 25" fill="none" xmlns="http://www.w3.org/2000/svg">
<path fill-rule="evenodd" clip-rule="evenodd" d="M12 0.162109C5.37258 0.162109 0 5.53469 0 12.1621C0 18.7895 5.37258 24.1621 12 24.1621C18.6274 24.1621 24 18.7895 24 12.1621C24 5.53469 18.6274 0.162109 12 0.162109ZM5.7608 10.1011H8.48027V18.2719H5.7608V10.1011ZM8.65936 7.57346C8.64171 6.77231 8.0688 6.16211 7.13849 6.16211C6.20818 6.16211 5.59998 6.77231 5.59998 7.57346C5.59998 8.35801 6.1902 8.98578 7.10319 8.98578H7.12057C8.0688 8.98578 8.65936 8.35801 8.65936 7.57346ZM15.1566 9.90918C16.9461 9.90918 18.2877 11.0773 18.2877 13.587L18.2876 18.2719H15.5682V13.9005C15.5682 12.8025 15.1747 12.0532 14.1902 12.0532C13.4389 12.0532 12.9914 12.5583 12.7949 13.0462C12.723 13.221 12.7053 13.4646 12.7053 13.7088V18.2721H9.98553C9.98553 18.2721 10.0214 10.868 9.98553 10.1013H12.7053V11.2586C13.0663 10.7022 13.7127 9.90918 15.1566 9.90918Z" fill="white"/>
</svg>
