<svg width="24" height="25" viewBox="0 0 24 25" fill="none" xmlns="http://www.w3.org/2000/svg">
<path fill-rule="evenodd" clip-rule="evenodd" d="M12 0.162109C5.37258 0.162109 0 5.53469 0 12.1621C0 18.7895 5.37258 24.1621 12 24.1621C18.6274 24.1621 24 18.7895 24 12.1621C24 5.53469 18.6274 0.162109 12 0.162109ZM17.0008 8.03687C17.5515 8.188 17.9853 8.63331 18.1325 9.19882C18.4 10.2237 18.4 12.3622 18.4 12.3622C18.4 12.3622 18.4 14.5006 18.1325 15.5256C17.9853 16.0911 17.5515 16.5364 17.0008 16.6876C16.0027 16.9622 12 16.9622 12 16.9622C12 16.9622 7.99728 16.9622 6.9991 16.6876C6.44834 16.5364 6.01459 16.0911 5.86739 15.5256C5.59998 14.5006 5.59998 12.3622 5.59998 12.3622C5.59998 12.3622 5.59998 10.2237 5.86739 9.19882C6.01459 8.63331 6.44834 8.188 6.9991 8.03687C7.99728 7.76221 12 7.76221 12 7.76221C12 7.76221 16.0027 7.76221 17.0008 8.03687Z" fill="white"/>
<path d="M10.8 14.562V10.562L14 12.5621L10.8 14.562Z" fill="white"/>
</svg>
