<?xml version="1.0" encoding="utf-8"?>
<!-- Generator: Adobe Illustrator 27.0.0, SVG Export Plug-In . SVG Version: 6.00 Build 0)  -->
<svg version="1.1" id="Camada_1" xmlns="http://www.w3.org/2000/svg" xmlns:xlink="http://www.w3.org/1999/xlink" x="0px" y="0px"
	 viewBox="0 0 16 16" style="enable-background:new 0 0 16 16;" xml:space="preserve">
<style type="text/css">
	.st0{fill:#692746;}
</style>
<g>
	<path class="st0" d="M3,2c0.3,0.1,0.6,0.1,0.9,0.2c1,0.2,2,0.5,2.9,1.1c1.1,0.8,1.6,1.8,1.6,3.1c0,0.8-0.3,1.5-0.7,2.2
		c-0.6,1.1-1.5,2-2.5,2.8c-1.5,1.2-3.1,2.1-4.8,3c-0.1,0.1-0.2,0.1-0.3,0.2c0.1,0,0.1,0,0.1,0c1.8-0.5,3.4-1.1,5.1-1.8
		c1.8-0.8,3.5-1.7,5.1-3c0.8-0.6,1.5-1.4,2-2.3c0.4-0.7,0.6-1.4,0.4-2.2c-0.1-0.8-0.6-1.4-1.3-1.9c-0.7-0.5-1.5-0.7-2.3-0.9
		C7.2,2.1,5.1,2,3,2z M10.2,10.6C10.2,10.6,10.2,10.6,10.2,10.6c1.2-0.7,2.4-1.4,3.5-2.2c0.7-0.5,1.3-1.1,1.8-1.8
		c0.2-0.3,0.4-0.7,0.4-1.1c0.1-0.6-0.2-1-0.6-1.4c-0.5-0.4-1-0.7-1.6-0.9c-0.1,0-0.2-0.1-0.4-0.1c0,0.1,0.1,0.1,0.2,0.1
		c0.4,0.2,0.8,0.4,1.1,0.8c0.5,0.6,0.7,1.2,0.5,1.9c-0.2,0.6-0.6,1.1-1,1.6c-0.1,0.1-0.2,0.2-0.3,0.4c0-0.1,0-0.1,0.1-0.2
		c0.2-0.3,0.4-0.6,0.5-0.9c0.5-1.2,0.2-2.2-0.8-3c-0.6-0.5-1.3-0.8-2.1-1c-0.4-0.1-0.8-0.2-1.2-0.3c0.5,0.2,1,0.4,1.5,0.6
		c0.5,0.2,1,0.6,1.3,1c0.7,0.8,0.8,1.8,0.4,2.8c-0.3,1-0.9,1.7-1.7,2.4C11.3,9.8,10.7,10.2,10.2,10.6z"/>
	<path class="st0" d="M3,2c2.1,0,4.2,0.1,6.3,0.6c0.8,0.2,1.6,0.5,2.3,0.9c0.7,0.5,1.2,1,1.3,1.9c0.1,0.8-0.1,1.5-0.4,2.2
		c-0.5,0.9-1.2,1.6-2,2.3c-1.5,1.2-3.3,2.2-5.1,3c-1.7,0.7-3.3,1.3-5.1,1.8c0,0-0.1,0-0.1,0c0.1-0.1,0.2-0.1,0.3-0.2
		c1.7-0.9,3.3-1.8,4.8-3c1-0.8,1.9-1.7,2.5-2.8C8.1,8,8.3,7.2,8.4,6.4c0.1-1.3-0.5-2.4-1.6-3.1C5.9,2.7,5,2.4,3.9,2.2
		C3.6,2.1,3.3,2.1,3,2z"/>
	<path class="st0" d="M10.2,10.6c0.5-0.4,1.1-0.8,1.7-1.3c0.7-0.7,1.4-1.4,1.7-2.4c0.3-1,0.3-2-0.4-2.8c-0.4-0.4-0.8-0.8-1.3-1
		c-0.5-0.2-1-0.4-1.5-0.6c0.4,0.1,0.8,0.2,1.2,0.3c0.7,0.2,1.5,0.5,2.1,1c1,0.8,1.3,1.8,0.8,3c-0.1,0.3-0.3,0.6-0.5,0.9
		c0,0.1-0.1,0.1-0.1,0.2c0.1-0.1,0.2-0.2,0.3-0.4c0.4-0.5,0.8-1,1-1.6c0.2-0.7,0.1-1.4-0.5-1.9c-0.3-0.3-0.7-0.6-1.1-0.8
		c-0.1,0-0.1-0.1-0.2-0.1c0.1,0,0.2,0.1,0.4,0.1c0.6,0.2,1.1,0.5,1.6,0.9C15.8,4.5,16,4.9,16,5.5c0,0.4-0.2,0.7-0.4,1.1
		c-0.5,0.7-1.1,1.3-1.8,1.8C12.6,9.2,11.4,10,10.2,10.6C10.2,10.6,10.2,10.6,10.2,10.6z"/>
</g>
</svg>
