<svg width="50" height="50" viewBox="0 0 50 50" fill="none" xmlns="http://www.w3.org/2000/svg">
<path d="M9.375 6.25C10.3125 6.5625 11.25 6.5625 12.1875 6.875C15.3125 7.5 18.4375 8.4375 21.25 10.3125C24.6875 12.8125 26.25 15.9375 26.25 20C26.25 22.5 25.3125 24.6875 24.0625 26.875C22.1875 30.3125 19.375 33.125 16.25 35.625C11.5625 39.375 6.5625 42.1875 1.25 45C0.9375 45.3125 0.625 45.3125 0.3125 45.625C0.625 45.625 0.625 45.625 0.625 45.625C6.25 44.0625 11.25 42.1875 16.5625 40C22.1875 37.5 27.5 34.6875 32.5 30.625C35 28.75 37.1875 26.25 38.75 23.4375C40 21.25 40.625 19.0625 40 16.5625C39.6875 14.0625 38.125 12.1875 35.9375 10.625C33.75 9.0625 31.25 8.4375 28.75 7.8125C22.5 6.5625 15.9375 6.25 9.375 6.25ZM31.875 33.125C35.625 30.9375 39.375 28.75 42.8125 26.25C45 24.6875 46.875 22.8125 48.4375 20.625C49.0625 19.6875 49.6875 18.4375 49.6875 17.1875C50 15.3125 49.0625 14.0625 47.8125 12.8125C46.25 11.5625 44.6875 10.625 42.8125 10C42.5 10 42.1875 9.6875 41.5625 9.6875C41.5625 10 41.875 10 42.1875 10C43.4375 10.625 44.6875 11.25 45.625 12.5C47.1875 14.375 47.8125 16.25 47.1875 18.4375C46.5625 20.3125 45.3125 21.875 44.0625 23.4375C43.75 23.75 43.4375 24.0625 43.125 24.6875C43.125 24.375 43.125 24.375 43.4375 24.0625C44.0625 23.125 44.6875 22.1875 45 21.25C46.5625 17.5 45.625 14.375 42.5 11.875C40.625 10.3125 38.4375 9.375 35.9375 8.75C34.6875 8.4375 33.4375 8.125 32.1875 7.8125C33.75 8.4375 35.3125 9.0625 36.875 9.6875C38.4375 10.3125 40 11.5625 40.9375 12.8125C43.125 15.3125 43.4375 18.4375 42.1875 21.5625C41.25 24.6875 39.375 26.875 36.875 29.0625C35.3125 30.625 33.4375 31.875 31.875 33.125Z" fill="#692746"/>
<path d="M9.375 6.25C15.9375 6.25 22.5 6.5625 29.0625 8.125C31.5625 8.75 34.0625 9.6875 36.25 10.9375C38.4375 12.5 40 14.0625 40.3125 16.875C40.625 19.375 40 21.5625 39.0625 23.75C37.5 26.5625 35.3125 28.75 32.8125 30.9375C28.125 34.6875 22.5 37.8125 16.875 40.3125C11.5625 42.5 6.5625 44.375 0.9375 45.9375H0.625C0.9375 45.625 1.25 45.625 1.5625 45.3125C6.875 42.5 11.875 39.6875 16.5625 35.9375C19.6875 33.4375 22.5 30.625 24.375 27.1875C25.3125 25 25.9375 22.5 26.25 20C26.5625 15.9375 24.6875 12.5 21.25 10.3125C18.4375 8.4375 15.625 7.5 12.1875 6.875C11.25 6.5625 10.3125 6.5625 9.375 6.25Z" fill="#692746"/>
<path d="M31.875 33.125C33.4375 31.875 35.3125 30.625 37.1875 29.0625C39.375 26.875 41.5625 24.6875 42.5 21.5625C43.4375 18.4375 43.4375 15.3125 41.25 12.8125C40 11.5625 38.75 10.3125 37.1875 9.6875C35.625 9.0625 34.0625 8.4375 32.5 7.8125C33.75 8.125 35 8.4375 36.25 8.75C38.4375 9.375 40.9375 10.3125 42.8125 11.875C45.9375 14.375 46.875 17.5 45.3125 21.25C45 22.1875 44.375 23.125 43.75 24.0625C43.75 24.375 43.4375 24.375 43.4375 24.6875C43.75 24.375 44.0625 24.0625 44.375 23.4375C45.625 21.875 46.875 20.3125 47.5 18.4375C48.125 16.25 47.8125 14.0625 45.9375 12.5C45 11.5625 43.75 10.625 42.5 10C42.1875 10 42.1875 9.6875 41.875 9.6875C42.1875 9.6875 42.5 10 43.125 10C45 10.625 46.5625 11.5625 48.125 12.8125C49.375 14.0625 50 15.3125 50 17.1875C50 18.4375 49.375 19.375 48.75 20.625C47.1875 22.8125 45.3125 24.6875 43.125 26.25C39.375 28.75 35.625 31.25 31.875 33.125Z" fill="#692746"/>
</svg>
