<svg width="19" height="12" viewBox="0 0 19 12" fill="none" xmlns="http://www.w3.org/2000/svg">
<path fill-rule="evenodd" clip-rule="evenodd" d="M5.19957 2.46446H3.4904V9.32721H5.19957L2.80673 11.7292L0.413879 9.32721H2.12306V2.46446H0.413879L2.80673 0.0625L5.19957 2.46446ZM9.36045 6.43278H4.78342V5.19525H9.80614C10.0712 5.19525 10.3068 5.36924 10.3861 5.62415L11.4804 9.06794L13.4872 0.947027C13.5582 0.659696 13.8324 0.464981 14.1116 0.479976C14.405 0.495633 14.6462 0.71703 14.687 1.00965L15.3879 5.98337H18.7225C18.7257 5.98337 18.7247 7.21914 18.7203 7.21914H14.8581C14.5529 7.21914 14.2951 6.99245 14.2524 6.68858L13.9159 4.30657L12.151 11.4693C12.0826 11.7371 11.8504 11.9276 11.5767 11.9364C11.5695 11.9375 11.5619 11.9375 11.5547 11.9375C11.2901 11.9375 11.0541 11.7648 10.9748 11.5093L9.36045 6.43278Z" fill="#3A3B3F"/>
</svg>
