<svg width="20" height="21" viewBox="0 0 20 21" fill="none" xmlns="http://www.w3.org/2000/svg">
<path fill-rule="evenodd" clip-rule="evenodd" d="M17.4282 9.65557C17.0454 6.18057 14.2905 3.42223 10.8198 3.0389V1.32224H9.15524V3.0389C5.68457 3.42223 2.92967 6.18057 2.54682 9.65557H0.832291V11.3222H2.54682C2.92967 14.7972 5.68457 17.5556 9.15524 17.9389V19.6556H10.8198V17.9389C14.2905 17.5556 17.0454 14.7972 17.4282 11.3222H19.1428V9.65557H17.4282ZM9.98753 7.15557C8.14816 7.15557 6.65835 8.64723 6.65835 10.4889C6.65835 12.3306 8.14816 13.8222 9.98753 13.8222C11.8269 13.8222 13.3167 12.3306 13.3167 10.4889C13.3167 8.64723 11.8269 7.15557 9.98753 7.15557ZM4.16147 10.4889C4.16147 13.7139 6.76655 16.3222 9.98753 16.3222C13.2085 16.3222 15.8136 13.7139 15.8136 10.4889C15.8136 7.2639 13.2085 4.65557 9.98753 4.65557C6.76655 4.65557 4.16147 7.2639 4.16147 10.4889Z" fill="#3A3B3F"/>
</svg>
