<svg width="21" height="20" viewBox="0 0 21 20" fill="none" xmlns="http://www.w3.org/2000/svg">
<path fill-rule="evenodd" clip-rule="evenodd" d="M6.19957 6.46446H4.4904V13.3272H6.19957L3.80673 15.7292L1.41388 13.3272H3.12306V6.46446H1.41388L3.80673 4.0625L6.19957 6.46446ZM10.3604 10.4328H5.78342V9.19525H10.8061C11.0712 9.19525 11.3068 9.36924 11.3861 9.62415L12.4804 13.0679L14.4872 4.94703C14.5582 4.6597 14.8324 4.46498 15.1116 4.47998C15.405 4.49563 15.6462 4.71703 15.687 5.00965L16.3879 9.98337H19.7225C19.7257 9.98337 19.7247 11.2191 19.7203 11.2191H15.8581C15.5529 11.2191 15.2951 10.9924 15.2524 10.6886L14.9159 8.30657L13.151 15.4693C13.0826 15.7371 12.8504 15.9276 12.5767 15.9364C12.5695 15.9375 12.5619 15.9375 12.5547 15.9375C12.2901 15.9375 12.0541 15.7648 11.9748 15.5093L10.3604 10.4328Z" fill="#3A3B3F"/>
</svg>
