<svg width="21" height="21" viewBox="0 0 21 21" fill="none" xmlns="http://www.w3.org/2000/svg">
<path fill-rule="evenodd" clip-rule="evenodd" d="M9.11026 17.1444C9.45481 17.2068 9.68403 17.54 9.62224 17.8887C9.5604 18.2371 9.23118 18.4691 8.88653 18.4065C7.75064 18.2003 6.69296 17.7529 5.74311 17.076C5.38016 16.8174 5.04306 16.5315 4.73316 16.2224C4.73272 16.2219 4.73225 16.2215 4.73177 16.2211C4.73126 16.2207 4.73074 16.2203 4.73024 16.2197L4.72208 16.2113C3.5686 15.0557 2.79882 13.5706 2.51597 11.9203C2.48813 11.7585 2.46593 11.5967 2.44824 11.4353L2.44655 11.4259L2.44655 11.4259C2.44524 11.4189 2.44395 11.412 2.44332 11.4048C2.4262 11.2443 2.41359 11.0812 2.40644 10.9204L2.40645 10.9124L2.40644 10.904C2.33261 9.25757 2.76312 7.64039 3.65568 6.24155L3.66114 6.23179C3.66501 6.22478 3.66887 6.21777 3.67348 6.21084C3.72738 6.12663 3.78372 6.04243 3.84087 5.96029C3.87582 5.91016 3.91152 5.86004 3.94748 5.81105C3.95429 5.80164 3.96159 5.79298 3.96886 5.78436L3.9746 5.77752C5.05622 4.31536 6.57201 3.29057 8.30933 2.83936L8.3173 2.83703L8.3173 2.83703C8.32221 2.83557 8.32718 2.83409 8.33211 2.83288L8.33608 2.83216C8.5334 2.78155 8.73347 2.73808 8.93639 2.70256C10.9511 2.34923 12.9809 2.78735 14.6733 3.93631L15.1698 3.21083C15.3076 3.00941 15.4732 3.03766 15.5379 3.27367L16.1156 5.37893C16.1805 5.61467 16.0362 5.82582 15.7948 5.84776L13.6434 6.04257C13.4023 6.06451 13.3176 5.9177 13.4553 5.71625L13.9506 4.99248C11.6445 3.43727 8.69551 3.53927 6.5237 5.05271L6.50099 5.06876C5.88467 5.50225 5.33185 6.04919 4.87503 6.70477C2.77417 9.72079 3.4912 13.9031 6.47336 16.0277C6.67788 16.1733 6.88839 16.3062 7.10409 16.4263L7.10414 16.4263C7.10477 16.4266 7.10549 16.4269 7.10588 16.4274C7.22344 16.4921 7.34474 16.5541 7.46623 16.6119C7.47013 16.6137 7.47367 16.6157 7.47723 16.6178L7.4842 16.6217C7.99976 16.8662 8.54347 17.0414 9.11026 17.1444ZM16.49 8.13168C16.541 8.25478 16.5889 8.38114 16.632 8.50713C16.6776 8.63962 16.7645 8.74779 16.8744 8.82253C17.0372 8.93325 17.2504 8.9705 17.4538 8.90559C17.7947 8.79632 17.9795 8.44145 17.8667 8.11252C17.8153 7.96257 17.7583 7.81215 17.6975 7.66569C17.5641 7.34384 17.1859 7.18714 16.8522 7.31588C16.5189 7.44455 16.3565 7.80973 16.49 8.13168ZM12.6782 17.5407C12.5902 17.2028 12.2325 16.9972 11.8789 17.0813C11.7436 17.1136 11.6057 17.1422 11.4688 17.1663C11.1108 17.2299 10.8742 17.5589 10.9404 17.9012C10.9731 18.0697 11.0732 18.2099 11.2091 18.3015C11.3492 18.3957 11.5274 18.4383 11.709 18.406C11.8721 18.3771 12.0364 18.3431 12.1976 18.3046C12.5511 18.2205 12.7664 17.8783 12.6782 17.5407ZM13.9912 16.2272C14.2869 16.0396 14.685 16.1176 14.8804 16.4016C15.0758 16.6855 14.9944 17.0678 14.6988 17.2553C14.5639 17.3409 14.4248 17.4233 14.2848 17.5008C14.0609 17.6246 13.792 17.6046 13.594 17.4709C13.5203 17.4208 13.4562 17.3553 13.4082 17.2751C13.2311 16.9804 13.3363 16.6035 13.6434 16.4335C13.7611 16.3684 13.878 16.299 13.9912 16.2272ZM18.21 10.7954C18.2135 10.6301 18.2122 10.4626 18.206 10.2974C18.1925 9.93508 17.9035 9.65304 17.5604 9.66719C17.2177 9.68148 16.9505 9.98679 16.9639 10.349C16.9691 10.4875 16.9704 10.6281 16.9674 10.7664C16.9626 10.9936 17.0678 11.1962 17.2313 11.318C17.3287 11.3904 17.4469 11.4343 17.5751 11.4373C17.9182 11.4454 18.2024 11.158 18.21 10.7954ZM16.4993 14.4854C16.7821 14.7025 16.8396 15.1127 16.6272 15.402C16.53 15.5343 16.4279 15.665 16.3232 15.7907C16.1067 16.0503 15.7347 16.0946 15.467 15.9017C15.4509 15.8902 15.4354 15.878 15.42 15.8647C15.1508 15.6303 15.1184 15.217 15.3476 14.9418C15.4353 14.8364 15.5209 14.727 15.6023 14.6162C15.8146 14.327 16.2158 14.268 16.4993 14.4854ZM17.8698 12.9811C17.9776 12.6508 17.786 12.2991 17.4417 12.1955C17.0973 12.092 16.7306 12.2759 16.6227 12.6062C16.5814 12.7323 16.5356 12.8591 16.4862 12.9833C16.3777 13.2567 16.4817 13.5574 16.72 13.7186C16.7637 13.7481 16.8119 13.773 16.8642 13.792C17.2013 13.9154 17.5789 13.7532 17.7074 13.4296C17.7661 13.282 17.8205 13.1311 17.8698 12.9811ZM10.3921 5.91718C10.3921 5.62945 10.1633 5.39584 9.88075 5.39584C9.59789 5.39584 9.36878 5.62945 9.36878 5.91718V11.1111L14.0319 13.5668C14.107 13.6064 14.1873 13.625 14.2664 13.625C14.4516 13.625 14.6305 13.5223 14.7215 13.343C14.8512 13.0871 14.753 12.7728 14.5018 12.6407L10.3921 10.4763V5.91718Z" fill="#3A3B3F"/>
</svg>
