<svg width="21" height="20" viewBox="0 0 21 20" fill="none" xmlns="http://www.w3.org/2000/svg">
<path d="M13.6011 5.85409C13.6116 5.85398 13.6221 5.85396 13.6327 5.85402C13.7341 5.85466 13.9005 5.85466 14.1318 5.85402L15.9869 7.55368H16.3682V7.01696C16.3682 6.72054 16.6085 6.48024 16.9049 6.48024H17.7994C18.0958 6.48024 18.3361 6.72054 18.3361 7.01696V14.3522C18.3361 14.6486 18.0958 14.8889 17.7994 14.8889H16.9049C16.6085 14.8889 16.3682 14.6486 16.3682 14.3522V13.5471H15.4736V14.5311C15.4736 14.9263 15.1532 15.2467 14.758 15.2467H7.49046C6.64331 14.4258 6.11392 13.9113 5.9023 13.7031C5.89468 13.6956 5.72545 13.6985 5.56909 13.6953C5.50939 13.694 5.35419 13.6953 5.33202 13.6953C5.32613 13.6953 5.11358 13.7031 4.8903 13.7031C4.85667 13.7031 4.77459 13.7025 4.64404 13.7015C4.25103 13.6984 3.93407 13.3789 3.93407 12.9859V11.4002H3.39735V13.4576H2.50281V6.83805H3.39735V8.89549H3.93407V7.9115C3.93407 7.51627 4.25447 7.19587 4.6497 7.19587H5.8126V6.39078C5.8126 6.09436 6.0529 5.85406 6.34932 5.85406H8.94349V5.22788H6.88605V4.33334H13.5056V5.22788H11.4482V5.85406H13.5951C13.5971 5.85406 13.5991 5.85407 13.6011 5.85409Z" fill="#3A3B3F"/>
</svg>
