<svg width="17" height="12" viewBox="0 0 17 12" fill="none" xmlns="http://www.w3.org/2000/svg">
<path d="M11.6011 1.85409C11.6116 1.85398 11.6221 1.85396 11.6327 1.85402C11.7341 1.85466 11.9005 1.85466 12.1318 1.85402L13.9869 3.55368H14.3682V3.01696C14.3682 2.72054 14.6085 2.48024 14.9049 2.48024H15.7994C16.0958 2.48024 16.3361 2.72054 16.3361 3.01696V10.3522C16.3361 10.6486 16.0958 10.8889 15.7994 10.8889H14.9049C14.6085 10.8889 14.3682 10.6486 14.3682 10.3522V9.54709H13.4736V10.5311C13.4736 10.9263 13.1532 11.2467 12.758 11.2467H5.49046C4.64331 10.4258 4.11392 9.91127 3.9023 9.70306C3.89468 9.69556 3.72545 9.69852 3.56909 9.69528C3.50939 9.69404 3.35419 9.69528 3.33202 9.69528C3.32613 9.69528 3.11358 9.70306 2.8903 9.70306C2.85667 9.70306 2.77459 9.70254 2.64404 9.70151C2.25103 9.6984 1.93407 9.37892 1.93407 8.9859V7.4002H1.39735V9.45764H0.502808V2.83805H1.39735V4.89549H1.93407V3.9115C1.93407 3.51627 2.25447 3.19587 2.6497 3.19587H3.8126V2.39078C3.8126 2.09436 4.0529 1.85406 4.34932 1.85406H6.94349V1.22788H4.88605V0.333344H11.5056V1.22788H9.44819V1.85406H11.5951C11.5971 1.85406 11.5991 1.85407 11.6011 1.85409Z" fill="#3A3B3F"/>
</svg>
