<svg width="167" height="71" viewBox="0 0 167 71" fill="none" xmlns="http://www.w3.org/2000/svg">
<g clip-path="url(#clip0_4454_454)">
<path fill-rule="evenodd" clip-rule="evenodd" d="M49.5333 41.6909H41.4956C41.3815 41.6909 41.3486 41.7802 41.3486 41.8441V62.3855C41.3486 62.4166 41.3486 62.5288 41.4921 62.5288H49.5333C56.825 62.5288 60.0394 57.2078 59.9501 51.9317C59.8607 46.7742 56.6763 41.6909 49.5333 41.6909ZM45.2859 45.4068H49.5333C54.0574 45.4068 55.9621 48.6517 56.0514 51.9017C56.1408 55.3004 54.2655 58.7537 49.5333 58.7537H45.2744C45.2548 58.7537 45.2473 58.7548 45.2473 58.726V45.4442C45.2473 45.4171 45.2594 45.4068 45.2859 45.4068Z" fill="white"/>
<path fill-rule="evenodd" clip-rule="evenodd" d="M112.418 62.3969C112.418 62.4695 112.478 62.5288 112.55 62.5288H115.935C116.007 62.5288 116.067 62.4695 116.067 62.3969V53.7032C116.107 53.5207 116.163 53.3439 116.233 53.1746C116.393 52.7923 116.627 52.4469 116.917 52.1567C117.207 51.8671 117.553 51.6334 117.936 51.4739C118.304 51.3207 118.708 51.2355 119.13 51.2355C119.552 51.2355 119.955 51.3202 120.323 51.4739C120.706 51.6334 121.052 51.8671 121.342 52.1567C122.308 53.1217 122.199 53.8362 122.199 55.0487V61.8989H122.245V62.4004C122.245 62.4712 122.303 62.5288 122.373 62.5288H125.66C125.731 62.5288 125.789 62.4712 125.789 62.4004C125.789 57.7426 125.789 60.8447 125.789 56.1875C125.789 56.176 125.787 56.1651 125.785 56.1547V55.0971C125.785 53.8678 125.662 53.1349 126.642 52.1573C126.932 51.8677 127.277 51.6339 127.66 51.4745C128.029 51.3213 128.432 51.2361 128.854 51.2361C129.276 51.2361 129.679 51.3207 130.048 51.4745C130.431 51.6339 130.777 51.8677 131.067 52.1573C131.357 52.4469 131.591 52.7923 131.75 53.1752C131.904 53.5431 131.989 53.9461 131.989 54.3676V57.5624C131.985 59.9713 131.972 58.4076 131.972 62.4015C131.972 62.4723 132.029 62.5299 132.1 62.5299H135.388C135.458 62.5299 135.516 62.4723 135.516 62.4015C135.516 57.7437 135.516 60.8459 135.516 56.1887C135.516 56.1743 135.514 56.1604 135.509 56.1478V54.3676C135.509 53.4706 135.33 52.6139 135.004 51.8314C134.665 51.0185 134.17 50.2856 133.556 49.6724C132.942 49.0592 132.208 48.5641 131.394 48.2261C130.611 47.9008 129.753 47.7212 128.855 47.7212C127.957 47.7212 127.099 47.9008 126.315 48.2261C125.501 48.5641 124.767 49.0592 124.154 49.6724C124.122 49.7041 124.091 49.7363 124.059 49.7685C124.037 49.7921 124.014 49.8158 123.993 49.8382C123.971 49.8152 123.949 49.7916 123.926 49.768C123.895 49.7351 123.863 49.7035 123.832 49.6724C123.218 49.0586 122.484 48.5641 121.67 48.2261C120.887 47.9008 120.029 47.7212 119.131 47.7212C118.508 47.7212 117.905 47.8076 117.332 47.9688C116.683 48.1513 116.53 48.301 115.978 48.5883L115.889 48.0114C115.889 47.9388 115.829 47.8795 115.757 47.8795H112.569C112.497 47.8795 112.437 47.9388 112.437 48.0114C112.437 52.8067 112.418 57.6021 112.418 62.3981V62.3969Z" fill="white"/>
<path fill-rule="evenodd" clip-rule="evenodd" d="M70.5743 63.0091C69.2075 66.2465 67.5409 69.6106 63.2042 70.161C63.0774 70.1771 63.0358 70.0637 63.0324 70.0303L62.6854 66.7698C62.6802 66.7238 62.6888 66.6207 62.8087 66.6029C64.8338 66.3064 65.9776 64.4882 66.8849 62.499L61.107 48.0731C61.0707 47.9384 61.1612 47.8739 61.254 47.8739H65.1405C65.208 47.8739 65.2581 47.8975 65.2893 47.9741L67.4862 54.2059L68.7878 58.0513L70.5386 53.9699L73.0139 47.9332C73.052 47.8612 73.0946 47.8394 73.1563 47.8394H76.8503C76.9501 47.8394 77.0227 47.9338 76.9864 48.0368L70.5749 63.0091H70.5743Z" fill="white"/>
<path fill-rule="evenodd" clip-rule="evenodd" d="M41.297 36.6661C48.9156 32.6963 66.8957 22.1545 66.8957 14.0785C66.8957 9.51111 62.0326 6.34624 54.6567 4.18778C54.6232 4.17914 54.6031 4.20505 54.6307 4.22117C67.3649 9.26181 65.5946 17.3366 56.7925 25.4759C59.3941 22.4924 60.9523 19.3322 61.1068 16.0055C61.4861 7.82188 52.2551 3.66443 41.5564 1.6332C41.542 1.62975 41.5322 1.64759 41.5507 1.65278C50.6081 3.96093 57.9714 8.45232 57.6474 16.2588C57.324 24.0579 50.6762 30.7687 41.282 36.6373C41.2653 36.6465 41.2728 36.6724 41.297 36.6661ZM0.0362898 52.8744C0.00112527 52.8836 -0.0161688 52.8497 0.0201487 52.8399C16.5481 44.5417 34.8066 32.6647 35.2989 18.1502C35.7704 4.27126 19.6685 0.787432 12.6177 0.122447C12.5399 0.122447 12.5353 0.00787422 12.6344 0.00787422C23.5107 -0.0779117 54.7114 0.312442 54.0606 16.4661C53.3902 33.1022 19.7653 48.0894 0.0362898 52.8744Z" fill="white"/>
<path fill-rule="evenodd" clip-rule="evenodd" d="M166.955 47.8735H163.015C162.966 47.8735 162.898 47.9138 162.863 47.9622L159.685 52.3546L156.508 47.9622C156.472 47.9133 156.403 47.8735 156.355 47.8735H152.415C152.366 47.8735 152.355 47.9133 152.39 47.9622L157.626 55.201L152.39 62.4399C152.355 62.4888 152.366 62.5285 152.415 62.5285H156.355C156.404 62.5285 156.472 62.4888 156.508 62.4399L159.685 58.0475L162.863 62.4399C162.898 62.4888 162.967 62.5285 163.015 62.5285H166.955C167.004 62.5285 167.015 62.4882 166.98 62.4399L161.744 55.201L166.98 47.9622C167.015 47.9133 167.004 47.8735 166.955 47.8735Z" fill="white"/>
<path fill-rule="evenodd" clip-rule="evenodd" d="M106.561 48.9053L106.65 48.01C106.657 47.9381 106.709 47.8782 106.782 47.8782H109.88C109.953 47.8782 110.012 47.9375 110.012 48.01C110.012 52.8054 110.012 57.6014 110.012 62.3967C110.012 62.4693 109.953 62.5286 109.88 62.5286H106.782C106.709 62.5286 106.657 62.4687 106.65 62.3967L106.561 61.4583C105.31 62.3225 103.704 62.9183 102.069 62.9183C99.9302 62.9183 97.9939 62.0524 96.5919 60.6522C95.1899 59.252 94.3229 57.3181 94.3229 55.1821C94.3229 53.0461 95.1899 51.1121 96.5919 49.7119C97.9939 48.3117 99.9302 47.4458 102.069 47.4458C103.704 47.4458 105.31 48.0411 106.561 48.9053ZM105.116 52.1387C104.336 51.3597 103.259 50.8784 102.069 50.8784C100.879 50.8784 99.8017 51.3603 99.0217 52.1387C98.2417 52.9177 97.7598 53.9932 97.7598 55.1821C97.7598 56.371 98.2423 57.4465 99.0217 58.2255C99.8017 59.0044 100.879 59.4858 102.069 59.4858C103.259 59.4858 104.336 59.0039 105.116 58.2255C105.896 57.4465 106.378 56.371 106.378 55.1821C106.378 53.9932 105.896 52.9177 105.116 52.1387Z" fill="white"/>
<path fill-rule="evenodd" clip-rule="evenodd" d="M144.924 47.4458C147.07 47.4458 149.013 48.3146 150.42 49.7194C151.826 51.1242 152.696 53.0651 152.696 55.208C152.696 57.3509 151.826 59.2917 150.42 60.6966C149.013 62.1014 147.07 62.9702 144.924 62.9702C142.779 62.9702 140.835 62.1014 139.429 60.6966C138.022 59.2917 137.152 57.3509 137.152 55.208C137.152 53.0651 138.022 51.1242 139.429 49.7194C140.835 48.3146 142.778 47.4458 144.924 47.4458ZM147.982 52.1548C147.2 51.3735 146.119 50.8899 144.924 50.8899C143.73 50.8899 142.649 51.373 141.867 52.1548C141.084 52.9361 140.6 54.0156 140.6 55.2086C140.6 56.4015 141.084 57.481 141.867 58.2623C142.649 59.0436 143.73 59.5272 144.924 59.5272C146.119 59.5272 147.2 59.0436 147.982 58.2623C148.764 57.481 149.248 56.4015 149.248 55.2086C149.248 54.0156 148.765 52.9361 147.982 52.1548Z" fill="white"/>
<path fill-rule="evenodd" clip-rule="evenodd" d="M85.5496 47.6358C87.5367 47.6358 89.3416 48.4465 90.649 49.7523C91.9565 51.0581 92.7681 52.8607 92.7681 54.8453V61.0582V62.4014C92.7681 62.471 92.7111 62.528 92.6413 62.528H89.4131C89.3433 62.528 89.2863 62.471 89.2863 62.4014V54.8453C89.2863 53.821 88.8655 52.8883 88.187 52.2107C87.509 51.5336 86.5751 51.1128 85.549 51.1128C84.5229 51.1128 83.589 51.476 82.9111 52.1531C82.2926 52.7709 81.8406 53.6489 81.7657 54.5759V60.9954V62.3962C81.7657 62.4687 81.7063 62.528 81.6337 62.528H78.2677C78.195 62.528 78.1357 62.4687 78.1357 62.3962V48.0095C78.1357 47.9369 78.195 47.8776 78.2677 47.8776H81.455C81.5276 47.8776 81.587 47.9369 81.587 48.0095L81.6763 48.7994C82.7779 48.1183 84.1638 47.6353 85.549 47.6353L85.5496 47.6358Z" fill="white"/>
</g>
<defs>
<clipPath id="clip0_4454_454">
<rect width="167" height="70.1619" fill="white"/>
</clipPath>
</defs>
</svg>
