<svg width="1280" height="720" viewBox="0 0 1280 720" fill="none" xmlns="http://www.w3.org/2000/svg">
<path d="M1097.68 638.64C1082.11 643.137 1066.06 646.552 1049.97 648.787C1049.74 648.819 1049.51 648.833 1049.28 648.833C1046.85 648.833 1044.73 647.045 1044.39 644.57C1044.01 641.865 1045.9 639.368 1048.61 638.994C1064.24 636.824 1079.82 633.51 1094.94 629.142C1097.57 628.381 1100.3 629.897 1101.06 632.515C1101.82 635.137 1100.3 637.879 1097.68 638.64ZM938.088 640.815C937.594 643.142 935.539 644.736 933.253 644.736C932.917 644.736 932.571 644.7 932.226 644.626C867.926 631.013 809.263 599.141 762.576 552.454C681.042 470.918 646.544 354.783 670.3 241.796C670.862 239.123 673.484 237.399 676.152 237.975C678.825 238.538 680.535 241.16 679.972 243.833C656.908 353.539 690.401 466.296 769.567 545.463C814.894 590.791 871.853 621.736 934.277 634.957C936.945 635.52 938.65 638.146 938.088 640.815ZM683.369 195.906C686.829 186.362 690.774 176.859 695.083 167.661C696.24 165.191 699.184 164.122 701.659 165.283C704.129 166.445 705.194 169.389 704.037 171.859C699.853 180.786 696.023 190.012 692.664 199.279C691.936 201.288 690.037 202.537 688.014 202.537C687.456 202.537 686.885 202.44 686.332 202.242C683.765 201.307 682.438 198.473 683.369 195.906ZM1202.18 512.076C1090.95 623.308 910.613 623.308 799.387 512.076C688.157 400.844 688.157 220.505 799.387 109.273L908.659 0H0V364.29C0 364.309 0 364.327 0 364.35C0 469.826 85.5023 555.33 190.977 555.33H347.323C486.143 555.33 622.627 591.026 743.673 658.985L852.341 720H1280V434.259L1202.18 512.076Z" fill="#263252"/>
<path d="M530.76 634.805C530.235 634.805 529.696 634.732 529.166 634.584C458.917 615.003 386.323 605.077 313.396 605.077H157.051C153.774 605.077 151.115 602.422 151.115 599.146C151.115 595.869 153.774 593.215 157.051 593.215H313.396C387.396 593.215 461.065 603.289 532.35 623.155C535.507 624.036 537.35 627.307 536.47 630.464C535.742 633.086 533.359 634.805 530.76 634.805ZM606.212 659.889C605.498 659.889 604.774 659.759 604.069 659.488C591.82 654.732 579.295 650.225 566.834 646.086C563.724 645.05 562.042 641.695 563.074 638.584C564.106 635.478 567.461 633.791 570.576 634.828C583.217 639.026 595.931 643.603 608.36 648.428C611.415 649.612 612.931 653.045 611.747 656.1C610.834 658.451 608.59 659.889 606.212 659.889Z" fill="#6074AB"/>
</svg>
