<svg width="24" height="25" viewBox="0 0 24 25" fill="none" xmlns="http://www.w3.org/2000/svg">
<path fill-rule="evenodd" clip-rule="evenodd" d="M12 0.162109C5.37258 0.162109 0 5.53469 0 12.1621C0 18.7895 5.37258 24.1621 12 24.1621C18.6274 24.1621 24 18.7895 24 12.1621C24 5.53469 18.6274 0.162109 12 0.162109ZM9.36161 5.80087C10.0443 5.76981 10.2624 5.76221 12.0006 5.76221H11.9986C13.7373 5.76221 13.9546 5.76981 14.6373 5.80087C15.3186 5.83207 15.7839 5.93994 16.192 6.09821C16.6133 6.26155 16.9693 6.48021 17.3253 6.83622C17.6813 7.19196 17.9 7.54903 18.064 7.96996C18.2213 8.3769 18.3293 8.84197 18.3613 9.52331C18.392 10.206 18.4 10.4241 18.4 12.1623C18.4 13.9004 18.392 14.118 18.3613 14.8007C18.3293 15.4818 18.2213 15.947 18.064 16.354C17.9 16.7749 17.6813 17.1319 17.3253 17.4877C16.9697 17.8437 16.6132 18.0629 16.1924 18.2263C15.7851 18.3846 15.3195 18.4925 14.6382 18.5237C13.9555 18.5547 13.7381 18.5623 11.9998 18.5623C10.2618 18.5623 10.0438 18.5547 9.36108 18.5237C8.67987 18.4925 8.21467 18.3846 7.80747 18.2263C7.38679 18.0629 7.02972 17.8437 6.67412 17.4877C6.31825 17.1319 6.09958 16.7749 5.93598 16.3539C5.77784 15.947 5.66998 15.4819 5.63864 14.8006C5.60771 14.1179 5.59998 13.9004 5.59998 12.1623C5.59998 10.4241 5.60798 10.2059 5.63851 9.52318C5.66918 8.84211 5.77718 8.3769 5.93585 7.96983C6.09985 7.54903 6.31852 7.19196 6.67452 6.83622C7.03026 6.48035 7.38733 6.26168 7.80827 6.09821C8.2152 5.93994 8.68027 5.83207 9.36161 5.80087Z" fill="white"/>
<path fill-rule="evenodd" clip-rule="evenodd" d="M11.4265 6.91517C11.538 6.915 11.6579 6.91505 11.7873 6.91511L12.0006 6.91517C13.7094 6.91517 13.912 6.92131 14.5868 6.95197C15.2108 6.98051 15.5495 7.08478 15.7751 7.17238C16.0737 7.28838 16.2867 7.42705 16.5105 7.65105C16.7345 7.87505 16.8732 8.08839 16.9895 8.38706C17.0771 8.61239 17.1815 8.95106 17.2099 9.57507C17.2405 10.2497 17.2472 10.4524 17.2472 12.1604C17.2472 13.8684 17.2405 14.0711 17.2099 14.7458C17.1813 15.3698 17.0771 15.7085 16.9895 15.9338C16.8735 16.2325 16.7345 16.4451 16.5105 16.669C16.2865 16.893 16.0739 17.0317 15.7751 17.1477C15.5497 17.2357 15.2108 17.3397 14.5868 17.3682C13.9121 17.3989 13.7094 17.4056 12.0006 17.4056C10.2917 17.4056 10.0891 17.3989 9.41447 17.3682C8.79046 17.3394 8.45179 17.2351 8.22605 17.1475C7.92739 17.0315 7.71405 16.8929 7.49005 16.6689C7.26604 16.4449 7.12738 16.2321 7.01111 15.9333C6.92351 15.7079 6.81911 15.3693 6.79071 14.7453C6.76004 14.0706 6.75391 13.8679 6.75391 12.1588C6.75391 10.4497 6.76004 10.2481 6.79071 9.57347C6.81924 8.94946 6.92351 8.61079 7.01111 8.38519C7.12711 8.08652 7.26604 7.87318 7.49005 7.64918C7.71405 7.42518 7.92739 7.28651 8.22605 7.17024C8.45166 7.08224 8.79046 6.97824 9.41447 6.94957C10.0049 6.92291 10.2337 6.91491 11.4265 6.91357V6.91517ZM15.4169 7.97781C14.9929 7.97781 14.6489 8.32141 14.6489 8.74555C14.6489 9.16955 14.9929 9.51356 15.4169 9.51356C15.8409 9.51356 16.1849 9.16955 16.1849 8.74555C16.1849 8.32154 15.8409 7.97754 15.4169 7.97754V7.97781ZM8.71393 12.1619C8.71393 10.3469 10.1855 8.87532 12.0005 8.87524C13.8156 8.87524 15.2868 10.3469 15.2868 12.1619C15.2868 13.977 13.8157 15.448 12.0006 15.448C10.1855 15.448 8.71393 13.977 8.71393 12.1619Z" fill="white"/>
<path d="M12.0005 10.0288C13.1787 10.0288 14.1339 10.9839 14.1339 12.1622C14.1339 13.3403 13.1787 14.2955 12.0005 14.2955C10.8223 14.2955 9.86719 13.3403 9.86719 12.1622C9.86719 10.9839 10.8223 10.0288 12.0005 10.0288Z" fill="white"/>
</svg>
